<svg width="439" height="244" viewBox="0 0 439 244" fill="none" xmlns="http://www.w3.org/2000/svg">
<path d="M33.282 122.072C31.9122 120.377 30.1742 119.018 28.2002 118.097C26.2262 117.176 24.0683 116.717 21.8905 116.756C18.405 116.756 14.2819 118.372 14.2819 122.284C14.2819 131.598 42.3358 124.07 42.2933 144.356C42.2933 156.688 30.4342 161.026 19.8502 160.984C16.0835 161.083 12.3429 160.331 8.90629 158.785C5.46973 157.239 2.42557 154.938 0 152.053L8.11861 144.398C9.57947 146.352 11.4615 147.952 13.6249 149.078C15.7884 150.205 18.1776 150.829 20.6153 150.905C24.3983 150.905 29.1165 149.416 29.1165 145.291C29.1165 134.702 0.977633 141.719 1.31768 122.965C1.53021 110.93 12.5392 105.954 22.0605 106.379C25.642 106.335 29.1902 107.072 32.4572 108.541C35.7242 110.011 38.6313 112.175 40.9756 114.885L33.282 122.072Z" fill="white"/>
<path d="M97.7632 159.495H85.394V150.99H85.0114C83.6823 153.996 81.4593 156.52 78.645 158.217C75.8308 159.914 72.5622 160.702 69.2843 160.473C55.5124 160.473 50.6242 150.735 50.6242 140.231V107.995H63.376V133.851C63.376 139.508 63.7585 148.948 72.7698 148.948C81.781 148.948 85.0114 142.952 85.0114 136.105V108.165H97.7632V159.495Z" fill="white"/>
<path d="M109.537 108.165H121.694V116.416H121.907C123.253 113.413 125.486 110.895 128.305 109.2C131.124 107.505 134.394 106.713 137.676 106.932C151.448 106.932 156.336 116.671 156.336 127.175V159.495H143.585V133.554C143.585 127.898 143.16 118.457 134.191 118.457C125.222 118.457 122.417 124.623 122.417 131.47V159.495H109.665L109.537 108.165Z" fill="white"/>
<path d="M199.777 152.606H199.437C197.684 155.355 195.235 157.59 192.338 159.084C189.441 160.578 186.2 161.277 182.945 161.111C173.424 161.111 164.625 155.54 164.625 145.419C164.625 129.641 181.245 126.239 194.379 127.6L199.82 128.153V126.494C199.777 120.073 195.527 117.011 188.471 117.011C183.405 116.969 178.513 118.854 174.784 122.284L167.685 115.225C170.599 112.472 174.032 110.328 177.783 108.919C181.534 107.51 185.529 106.863 189.533 107.017C211.424 107.017 211.424 122.922 211.381 130.152V159.495H199.777V152.606ZM199.437 137.083L196.419 136.658C189.448 135.68 177.547 136.913 177.547 144.313C177.631 145.336 177.92 146.331 178.397 147.239C178.873 148.148 179.527 148.952 180.32 149.602C181.113 150.253 182.029 150.737 183.013 151.027C183.997 151.316 185.029 151.405 186.048 151.287C187.706 151.445 189.38 151.261 190.964 150.745C192.548 150.228 194.009 149.392 195.256 148.288C196.504 147.183 197.511 145.834 198.216 144.323C198.92 142.813 199.307 141.174 199.352 139.507L199.437 137.083Z" fill="white"/>
<path d="M222.476 108.165H235.227V116.671H235.44C236.811 113.787 238.993 111.366 241.718 109.704C244.444 108.043 247.594 107.212 250.784 107.315C252.343 107.355 253.888 107.613 255.375 108.08V120.498C253.37 119.914 251.299 119.585 249.212 119.52C247.447 119.366 245.669 119.582 243.992 120.154C242.315 120.726 240.775 121.642 239.472 122.842C238.168 124.043 237.128 125.502 236.42 127.126C235.711 128.751 235.348 130.505 235.355 132.278V159.538H222.603L222.476 108.165Z" fill="white"/>
<path d="M263.111 108.123H275.267V116.203C277.203 113.245 279.896 110.86 283.066 109.296C286.235 107.733 289.766 107.049 293.29 107.315C309.102 107.315 318.368 119.137 318.538 134.319C318.669 137.695 318.128 141.063 316.948 144.228C315.767 147.393 313.97 150.292 311.661 152.756C309.351 155.221 306.576 157.202 303.495 158.585C300.415 159.968 297.09 160.726 293.715 160.813C290.426 160.996 287.139 160.411 284.115 159.104C281.09 157.798 278.411 155.806 276.288 153.286H275.99V182.8H263.238L263.111 108.123ZM290.527 118.797C287.472 118.729 284.466 119.573 281.892 121.221C279.318 122.87 277.293 125.247 276.075 128.051C274.857 130.855 274.501 133.958 275.052 136.965C275.604 139.972 277.037 142.747 279.171 144.936C281.304 147.125 284.041 148.628 287.032 149.255C290.023 149.882 293.132 149.604 295.965 148.456C298.797 147.308 301.223 145.342 302.935 142.809C304.646 140.277 305.565 137.291 305.574 134.234C305.661 132.216 305.335 130.201 304.615 128.314C303.894 126.427 302.796 124.707 301.386 123.261C299.976 121.815 298.286 120.673 296.418 119.905C294.551 119.137 292.546 118.76 290.527 118.797" fill="white"/>
<path d="M1.53026 194.835C1.85894 195.305 2.2986 195.687 2.81022 195.947C3.32185 196.207 3.88962 196.336 4.46316 196.323C5.14218 196.371 5.81347 196.155 6.33641 195.719C6.85936 195.283 7.19339 194.661 7.26854 193.984C7.26854 190.795 0.425109 192.794 0.425109 187.35C0.472921 186.787 0.632493 186.239 0.894496 185.738C1.1565 185.237 1.51567 184.794 1.95102 184.433C2.38637 184.073 2.88915 183.803 3.42996 183.639C3.97078 183.476 4.53878 183.422 5.10075 183.48C5.84367 183.408 6.59321 183.512 7.2878 183.786C7.98239 184.059 8.6022 184.494 9.09629 185.054L7.60859 186.457C7.32091 186.065 6.94261 185.747 6.50594 185.533C6.06926 185.318 5.58717 185.212 5.10075 185.224C3.01796 185.224 2.38038 186.5 2.38038 187.35C2.38038 190.88 9.22381 188.754 9.22381 193.772C9.22897 194.38 9.10368 194.982 8.85639 195.538C8.6091 196.093 8.24556 196.589 7.79032 196.993C7.33507 197.396 6.7987 197.696 6.2174 197.874C5.63611 198.052 5.02341 198.104 4.42065 198.024C3.61292 198.053 2.80948 197.895 2.07243 197.563C1.33539 197.231 0.684496 196.734 0.170074 196.111L1.53026 194.835Z" fill="white"/>
<path d="M19.8077 197.727H18.065V196.281C17.7624 196.817 17.3148 197.258 16.7734 197.551C16.2321 197.844 15.619 197.979 15.0046 197.939C14.5417 197.967 14.0783 197.893 13.6469 197.723C13.2155 197.553 12.8263 197.291 12.5066 196.954C12.1869 196.618 11.9443 196.217 11.7958 195.777C11.6473 195.338 11.5964 194.871 11.6466 194.41V188.413H13.3894V193.942C13.3894 195.685 14.367 196.323 15.5147 196.323C16.6623 196.323 18.1075 195.345 18.1075 193.219V188.413H19.8503L19.8077 197.727Z" fill="white"/>
<path d="M22.4856 188.413H24.2283V189.732C24.6064 189.222 25.1004 188.809 25.6696 188.528C26.2388 188.247 26.8667 188.106 27.5013 188.116C28.7136 188.229 29.8399 188.791 30.6598 189.692C31.4797 190.592 31.9341 191.767 31.9341 192.985C31.9341 194.203 31.4797 195.377 30.6598 196.278C29.8399 197.179 28.7136 197.741 27.5013 197.854C26.9046 197.907 26.3038 197.823 25.7441 197.61C25.1845 197.396 24.6807 197.058 24.2708 196.621V196.621V203.468H22.4856V188.413ZM24.2283 193.091C24.2617 193.699 24.4727 194.283 24.8352 194.771C25.1976 195.26 25.6955 195.631 26.267 195.839C26.8385 196.046 27.4585 196.082 28.0498 195.94C28.6411 195.798 29.1777 195.486 29.593 195.041C30.0083 194.597 30.284 194.04 30.3858 193.44C30.4875 192.841 30.4109 192.224 30.1654 191.668C29.9199 191.111 29.5164 190.639 29.005 190.31C28.4936 189.981 27.8968 189.809 27.2888 189.817C26.8646 189.802 26.4423 189.879 26.0502 190.042C25.6581 190.204 25.3052 190.449 25.0153 190.759C24.7255 191.069 24.5053 191.437 24.3695 191.84C24.2338 192.242 24.1857 192.669 24.2283 193.091" fill="white"/>
<path d="M35.7899 193.729C35.8551 194.504 36.2207 195.222 36.8085 195.731C37.3963 196.24 38.1596 196.498 38.9353 196.451C39.4391 196.426 39.9307 196.287 40.3727 196.044C40.8146 195.801 41.1953 195.46 41.4857 195.047L42.8034 196.068C42.3081 196.711 41.6594 197.219 40.9167 197.546C40.1741 197.873 39.3612 198.008 38.5528 197.939C37.9315 197.934 37.3176 197.804 36.7483 197.554C36.179 197.305 35.6662 196.943 35.241 196.49C34.8158 196.036 34.4869 195.502 34.2744 194.917C34.0619 194.333 33.9701 193.712 34.0047 193.091C33.9637 192.449 34.0557 191.805 34.2749 191.199C34.4942 190.594 34.8359 190.041 35.2788 189.574C35.7217 189.107 36.2562 188.736 36.8488 188.485C37.4414 188.234 38.0794 188.108 38.7228 188.116C39.3633 188.063 40.0075 188.156 40.6067 188.389C41.206 188.621 41.7448 188.986 42.1825 189.457C42.6203 189.928 42.9457 190.492 43.1342 191.107C43.3228 191.721 43.3695 192.371 43.2709 193.006V193.644L35.7899 193.729ZM41.3582 192.368C41.3899 192.007 41.3427 191.642 41.2199 191.3C41.0972 190.959 40.9017 190.648 40.6471 190.389C40.3925 190.13 40.0848 189.93 39.7452 189.802C39.4057 189.673 39.0423 189.621 38.6803 189.647C37.9393 189.635 37.2228 189.912 36.6831 190.421C36.1434 190.929 35.823 191.627 35.7899 192.368H41.3582Z" fill="white"/>
<path d="M45.3535 188.413H47.1388V189.859C47.4034 189.356 47.801 188.936 48.2882 188.643C48.7754 188.351 49.3335 188.198 49.9017 188.201C50.1546 188.154 50.4138 188.154 50.6668 188.201V190.114H49.8167C48.0739 190.114 47.1388 191.05 47.1388 193.091V197.769H45.3535V188.413Z" fill="white"/>
<path d="M53.6423 183.863C53.9844 183.874 54.3087 184.018 54.5467 184.264C54.7847 184.51 54.9177 184.839 54.9175 185.181C54.9175 185.52 54.7831 185.844 54.544 186.083C54.3048 186.323 53.9805 186.457 53.6423 186.457C53.4732 186.463 53.3048 186.434 53.1474 186.372C52.99 186.31 52.847 186.216 52.7274 186.097C52.6078 185.977 52.5141 185.834 52.4521 185.677C52.3901 185.519 52.3612 185.351 52.3671 185.181C52.3614 185.01 52.3902 184.84 52.4517 184.68C52.5132 184.52 52.6063 184.375 52.7252 184.252C52.8442 184.129 52.9867 184.031 53.1443 183.964C53.3018 183.897 53.4712 183.863 53.6423 183.863V183.863ZM52.7497 188.498H54.5349V197.812H52.7497V188.498Z" fill="white"/>
<path d="M57.2977 188.413H59.083V189.859C59.3855 189.323 59.8332 188.882 60.3746 188.589C60.9159 188.296 61.529 188.161 62.1434 188.201C62.6063 188.173 63.0696 188.247 63.5011 188.417C63.9325 188.587 64.3217 188.849 64.6414 189.186C64.9611 189.522 65.2037 189.923 65.3522 190.363C65.5007 190.802 65.5516 191.269 65.5013 191.73V197.727H63.7586V192.368C63.7586 190.582 62.7385 189.944 61.6333 189.944C60.5282 189.944 59.0405 190.88 59.0405 193.049V197.854H57.2552L57.2977 188.413Z" fill="white"/>
<path d="M73.1949 189.944H70.6871V194.197C70.6871 195.26 70.6871 196.366 72.0047 196.366C72.4479 196.374 72.886 196.271 73.2799 196.068V197.684C72.7702 197.902 72.2185 198.003 71.6647 197.982C68.9443 197.982 68.9018 196.323 68.9018 194.835V189.944H66.8615V188.413H68.9018V185.819H70.6871V188.413H73.1949V189.944Z" fill="white"/>
<path d="M76.8082 193.729C76.8351 194.115 76.9379 194.492 77.1108 194.837C77.2837 195.183 77.5231 195.491 77.8154 195.744C78.1077 195.997 78.4471 196.19 78.814 196.311C79.181 196.432 79.5683 196.48 79.9536 196.451C80.4574 196.427 80.949 196.288 81.391 196.044C81.8329 195.801 82.2136 195.46 82.504 195.048L83.8216 196.068C83.329 196.714 82.6808 197.225 81.9374 197.552C81.1941 197.879 80.3799 198.013 79.5711 197.939C78.9267 197.97 78.2831 197.865 77.6815 197.632C77.0798 197.399 76.5334 197.043 76.0773 196.587C75.6211 196.131 75.2653 195.584 75.0325 194.982C74.7997 194.38 74.6951 193.736 74.7254 193.091C74.6879 192.425 74.7923 191.757 75.0317 191.134C75.2711 190.51 75.64 189.945 76.1141 189.474C76.5882 189.004 77.1566 188.64 77.7818 188.406C78.4071 188.171 79.0749 188.073 79.7411 188.116C80.3782 188.07 81.0175 188.168 81.6113 188.404C82.2052 188.639 82.7384 189.005 83.1713 189.475C83.6042 189.945 83.9257 190.507 84.1119 191.118C84.2981 191.729 84.3442 192.375 84.2467 193.006V193.644L76.8082 193.729ZM82.3765 192.368C82.4081 192.007 82.361 191.642 82.2382 191.301C82.1154 190.959 81.92 190.648 81.6654 190.389C81.4108 190.13 81.1031 189.93 80.7635 189.802C80.4239 189.674 80.0606 189.621 79.6986 189.647C78.9575 189.635 78.2411 189.913 77.7014 190.421C77.1617 190.929 76.8413 191.628 76.8082 192.368H82.3765Z" fill="white"/>
<path d="M86.3719 188.413H88.1147V189.859C88.428 189.322 88.8839 188.883 89.4317 188.591C89.9794 188.298 90.5977 188.163 91.2176 188.2C91.6805 188.173 92.1438 188.247 92.5753 188.417C93.0067 188.587 93.3959 188.849 93.7156 189.185C94.0353 189.521 94.2779 189.923 94.4264 190.363C94.5749 190.802 94.6258 191.269 94.5755 191.73V197.726H92.7903V192.368C92.7903 190.582 91.8127 189.944 90.665 189.944C89.5173 189.944 88.0721 190.88 88.0721 193.048V197.854H86.3294L86.3719 188.413Z" fill="white"/>
<path d="M106.605 197.726H104.819V196.621C104.439 197.112 103.948 197.506 103.387 197.772C102.826 198.038 102.21 198.168 101.589 198.152C100.377 198.038 99.2503 197.476 98.4304 196.576C97.6105 195.675 97.1561 194.501 97.1561 193.282C97.1561 192.064 97.6105 190.89 98.4304 189.989C99.2503 189.089 100.377 188.527 101.589 188.413C102.211 188.386 102.831 188.511 103.394 188.778C103.957 189.045 104.446 189.445 104.819 189.944V182.885H106.605V197.726ZM104.819 193.091C104.786 192.492 104.577 191.916 104.22 191.435C103.862 190.953 103.371 190.587 102.807 190.383C102.243 190.178 101.632 190.144 101.049 190.284C100.466 190.424 99.9367 190.733 99.5273 191.171C99.118 191.61 98.8464 192.159 98.7462 192.75C98.6461 193.342 98.7219 193.95 98.9641 194.498C99.2064 195.047 99.6044 195.513 100.109 195.837C100.613 196.161 101.202 196.33 101.801 196.323C102.218 196.331 102.632 196.25 103.016 196.088C103.399 195.925 103.745 195.684 104.029 195.379C104.314 195.074 104.531 194.713 104.667 194.319C104.803 193.925 104.855 193.506 104.819 193.091" fill="white"/>
<path d="M110.515 193.729C110.542 194.115 110.645 194.491 110.818 194.837C110.991 195.183 111.23 195.491 111.522 195.744C111.815 195.997 112.154 196.19 112.521 196.311C112.888 196.432 113.275 196.48 113.661 196.451C114.158 196.423 114.642 196.282 115.077 196.039C115.511 195.796 115.885 195.457 116.168 195.047L117.529 196.068C117.033 196.711 116.385 197.219 115.642 197.546C114.899 197.873 114.086 198.008 113.278 197.939C112.636 197.97 111.994 197.865 111.394 197.632C110.795 197.399 110.251 197.042 109.798 196.585C109.345 196.128 108.993 195.581 108.765 194.979C108.537 194.377 108.438 193.734 108.475 193.091C108.437 192.424 108.542 191.757 108.781 191.134C109.021 190.51 109.39 189.944 109.864 189.474C110.338 189.004 110.906 188.64 111.531 188.405C112.157 188.171 112.824 188.072 113.491 188.116C114.131 188.063 114.775 188.156 115.374 188.389C115.974 188.621 116.513 188.986 116.95 189.457C117.388 189.928 117.713 190.492 117.902 191.107C118.091 191.721 118.137 192.371 118.039 193.006V193.644L110.515 193.729ZM116.168 192.368C116.201 192.003 116.153 191.634 116.028 191.289C115.903 190.944 115.703 190.631 115.444 190.372C115.184 190.112 114.871 189.913 114.526 189.787C114.182 189.662 113.813 189.614 113.448 189.647C113.076 189.629 112.705 189.687 112.355 189.815C112.005 189.943 111.685 190.139 111.412 190.393C111.139 190.646 110.919 190.951 110.765 191.29C110.611 191.629 110.526 191.996 110.515 192.368H116.168Z" fill="white"/>
<path d="M120.164 188.413H121.907V189.859C122.213 189.326 122.661 188.888 123.202 188.595C123.742 188.303 124.353 188.166 124.967 188.2C125.433 188.166 125.902 188.235 126.338 188.403C126.775 188.57 127.17 188.831 127.494 189.168C127.818 189.505 128.065 189.909 128.216 190.352C128.367 190.794 128.419 191.265 128.368 191.73V197.726H126.582V192.368C126.582 190.582 125.605 189.944 124.457 189.944C123.309 189.944 121.864 190.879 121.864 193.048V197.854H120.121L120.164 188.413Z" fill="white"/>
<path d="M137.719 190.88C137.427 190.549 137.067 190.286 136.663 190.11C136.259 189.934 135.822 189.848 135.381 189.859C134.969 189.862 134.562 189.952 134.188 190.123C133.813 190.294 133.478 190.542 133.205 190.851C132.933 191.16 132.728 191.523 132.605 191.916C132.482 192.309 132.443 192.724 132.491 193.134C132.461 193.546 132.518 193.959 132.657 194.348C132.795 194.737 133.014 195.093 133.298 195.393C133.582 195.693 133.925 195.931 134.305 196.091C134.686 196.251 135.096 196.33 135.509 196.323C135.941 196.331 136.369 196.24 136.759 196.055C137.15 195.871 137.493 195.599 137.761 195.26L138.994 196.536C138.543 197.012 137.994 197.385 137.385 197.627C136.776 197.87 136.121 197.976 135.466 197.939C134.824 197.976 134.181 197.877 133.579 197.649C132.978 197.421 132.431 197.069 131.974 196.616C131.517 196.162 131.161 195.618 130.927 195.019C130.694 194.419 130.59 193.777 130.62 193.134C130.572 192.477 130.663 191.817 130.887 191.198C131.111 190.578 131.463 190.013 131.921 189.54C132.378 189.066 132.93 188.694 133.541 188.449C134.152 188.203 134.808 188.09 135.466 188.116C136.133 188.097 136.795 188.22 137.411 188.477C138.026 188.733 138.58 189.118 139.037 189.604L137.719 190.88Z" fill="white"/>
<path d="M141.544 183.863C141.886 183.874 142.211 184.018 142.449 184.264C142.687 184.51 142.82 184.839 142.819 185.181C142.764 185.485 142.604 185.76 142.367 185.958C142.13 186.156 141.832 186.264 141.523 186.264C141.214 186.264 140.916 186.156 140.679 185.958C140.442 185.76 140.282 185.485 140.227 185.181C140.227 185.008 140.261 184.837 140.327 184.677C140.393 184.517 140.49 184.372 140.613 184.249C140.735 184.127 140.88 184.03 141.04 183.963C141.2 183.897 141.371 183.863 141.544 183.863ZM140.652 188.498H142.394V197.812H140.652V188.498Z" fill="white"/>
<path d="M145.242 189.562C146.208 188.673 147.459 188.16 148.77 188.116C151.491 188.116 152.638 189.604 152.638 191.178V195.941C152.638 196.579 152.638 197.131 152.638 197.642H151.321C151.321 197.174 151.321 196.706 151.321 196.238C150.974 196.781 150.486 197.218 149.909 197.503C149.333 197.788 148.689 197.909 148.048 197.854C147.655 197.895 147.257 197.855 146.88 197.736C146.503 197.618 146.154 197.423 145.855 197.164C145.556 196.904 145.314 196.587 145.143 196.23C144.971 195.874 144.875 195.486 144.86 195.09C144.86 192.709 147.155 191.858 149.961 191.858H151.236V191.475C151.237 191.2 151.181 190.927 151.069 190.674C150.958 190.422 150.795 190.196 150.59 190.011C150.385 189.826 150.144 189.687 149.882 189.602C149.619 189.518 149.342 189.489 149.068 189.519C148.073 189.52 147.115 189.9 146.39 190.582L145.242 189.562ZM150.216 193.262C148.6 193.262 146.518 193.559 146.518 195.048C146.518 196.536 147.283 196.536 148.558 196.536C148.915 196.557 149.272 196.499 149.604 196.368C149.937 196.236 150.237 196.034 150.484 195.775C150.73 195.516 150.918 195.207 151.033 194.868C151.148 194.53 151.188 194.17 151.151 193.814V193.262H150.216Z" fill="white"/>
<path d="M161.309 183.82H163.775L171.426 195.26H171.468V183.82H173.339V197.726H170.958L163.222 186.329H163.18V197.726H161.309V183.82Z" fill="white"/>
<path d="M176.484 189.562C177.501 188.658 178.822 188.172 180.182 188.201C182.902 188.201 184.05 189.689 184.05 191.263V196.026C184.005 196.592 184.005 197.161 184.05 197.727H182.775C182.775 197.259 182.775 196.791 182.775 196.323C182.425 196.862 181.936 197.297 181.36 197.581C180.784 197.866 180.142 197.989 179.502 197.939C179.105 197.987 178.703 197.951 178.321 197.835C177.939 197.719 177.585 197.525 177.281 197.265C176.978 197.006 176.731 196.686 176.558 196.326C176.384 195.966 176.286 195.574 176.272 195.175C176.272 192.794 178.609 191.943 181.415 191.943H182.69V191.56C182.692 191.28 182.635 191.003 182.521 190.748C182.407 190.492 182.24 190.264 182.03 190.078C181.821 189.893 181.574 189.755 181.306 189.673C181.039 189.591 180.757 189.568 180.48 189.604C179.992 189.599 179.508 189.69 179.056 189.872C178.604 190.055 178.192 190.325 177.844 190.667L176.484 189.562ZM181.457 193.261C179.8 193.261 177.759 193.559 177.759 195.047C177.759 196.536 178.524 196.536 179.757 196.536C180.116 196.556 180.474 196.498 180.809 196.367C181.143 196.236 181.445 196.034 181.695 195.776C181.945 195.518 182.137 195.21 182.257 194.871C182.377 194.533 182.423 194.172 182.392 193.814V193.261H181.457Z" fill="white"/>
<path d="M193.274 190.88C192.983 190.549 192.622 190.286 192.218 190.11C191.814 189.934 191.377 189.848 190.936 189.859C190.524 189.862 190.118 189.952 189.743 190.123C189.368 190.294 189.033 190.542 188.761 190.851C188.488 191.16 188.283 191.523 188.16 191.916C188.037 192.309 187.998 192.724 188.046 193.134C188.023 193.544 188.084 193.955 188.225 194.341C188.366 194.728 188.585 195.081 188.867 195.38C189.15 195.678 189.491 195.916 189.868 196.078C190.246 196.24 190.653 196.324 191.064 196.323C191.496 196.331 191.924 196.24 192.315 196.055C192.705 195.871 193.048 195.599 193.317 195.26L194.549 196.536C194.097 197.01 193.548 197.381 192.939 197.623C192.33 197.866 191.676 197.973 191.021 197.939C190.379 197.976 189.736 197.877 189.135 197.649C188.533 197.421 187.986 197.069 187.529 196.616C187.072 196.162 186.716 195.618 186.483 195.019C186.249 194.419 186.145 193.777 186.176 193.134C186.127 192.477 186.218 191.817 186.442 191.198C186.666 190.578 187.018 190.013 187.476 189.54C187.933 189.066 188.486 188.694 189.097 188.449C189.708 188.203 190.363 188.09 191.021 188.116C191.688 188.097 192.351 188.22 192.966 188.477C193.581 188.733 194.136 189.118 194.592 189.604L193.274 190.88Z" fill="white"/>
<path d="M197.1 183.863C197.442 183.874 197.766 184.018 198.004 184.264C198.242 184.51 198.375 184.839 198.375 185.181C198.32 185.485 198.16 185.76 197.923 185.958C197.686 186.156 197.387 186.264 197.078 186.264C196.77 186.264 196.471 186.156 196.234 185.958C195.997 185.76 195.837 185.485 195.782 185.181C195.782 185.008 195.816 184.837 195.882 184.677C195.948 184.517 196.045 184.372 196.168 184.249C196.29 184.127 196.435 184.03 196.595 183.963C196.755 183.897 196.926 183.863 197.1 183.863V183.863ZM196.207 188.498H197.95V197.812H196.207V188.498Z" fill="white"/>
<path d="M205.26 188.116C206.225 188.124 207.166 188.418 207.964 188.96C208.763 189.503 209.382 190.27 209.746 191.164C210.109 192.058 210.2 193.04 210.007 193.986C209.813 194.932 209.345 195.799 208.659 196.479C207.974 197.159 207.103 197.62 206.156 197.806C205.209 197.991 204.228 197.892 203.337 197.52C202.447 197.149 201.686 196.522 201.151 195.719C200.615 194.915 200.33 193.972 200.33 193.006C200.33 192.36 200.457 191.721 200.706 191.125C200.954 190.529 201.318 189.988 201.776 189.533C202.235 189.078 202.779 188.719 203.377 188.476C203.975 188.232 204.615 188.11 205.26 188.116ZM205.26 196.238C205.917 196.281 206.571 196.125 207.137 195.79C207.704 195.455 208.156 194.957 208.436 194.361C208.715 193.765 208.809 193.099 208.704 192.449C208.599 191.799 208.301 191.196 207.849 190.718C207.396 190.241 206.81 189.91 206.167 189.771C205.524 189.631 204.854 189.688 204.245 189.935C203.635 190.182 203.113 190.607 202.749 191.155C202.384 191.703 202.193 192.348 202.2 193.006C202.164 193.425 202.217 193.847 202.355 194.244C202.494 194.642 202.715 195.005 203.004 195.31C203.293 195.616 203.644 195.856 204.033 196.016C204.422 196.176 204.84 196.252 205.26 196.238" fill="white"/>
<path d="M212.529 188.413H214.314V189.859C214.613 189.319 215.06 188.876 215.602 188.582C216.144 188.288 216.76 188.156 217.375 188.2C217.838 188.173 218.301 188.247 218.732 188.417C219.164 188.587 219.553 188.849 219.873 189.185C220.192 189.521 220.435 189.923 220.584 190.363C220.732 190.802 220.783 191.269 220.733 191.73V197.726H218.905V192.368C218.905 190.582 217.885 189.944 216.78 189.944C215.674 189.944 214.187 190.88 214.187 193.048V197.854H212.529V188.413Z" fill="white"/>
<path d="M223.368 189.562C224.385 188.658 225.706 188.172 227.066 188.201C229.786 188.201 230.934 189.689 230.934 191.263V196.026C230.934 196.664 230.934 197.216 230.934 197.727H229.531C229.531 197.259 229.531 196.791 229.531 196.323C229.181 196.862 228.693 197.297 228.117 197.581C227.541 197.866 226.899 197.989 226.258 197.939C225.864 197.987 225.464 197.951 225.084 197.835C224.704 197.719 224.353 197.524 224.052 197.264C223.752 197.003 223.51 196.683 223.341 196.323C223.171 195.964 223.079 195.572 223.07 195.175C223.07 192.794 225.323 191.943 228.171 191.943H229.446V191.56C229.449 191.28 229.391 191.003 229.277 190.748C229.163 190.492 228.996 190.264 228.787 190.078C228.577 189.893 228.33 189.755 228.063 189.673C227.795 189.591 227.513 189.568 227.236 189.604C226.748 189.599 226.264 189.69 225.812 189.872C225.36 190.055 224.948 190.325 224.601 190.667L223.368 189.562ZM228.341 193.261C226.683 193.261 224.643 193.559 224.643 195.047C224.643 196.536 225.408 196.536 226.641 196.536C226.999 196.556 227.358 196.498 227.692 196.367C228.027 196.236 228.329 196.034 228.579 195.776C228.829 195.518 229.02 195.21 229.141 194.871C229.261 194.533 229.307 194.172 229.276 193.814V193.261H228.341Z" fill="white"/>
<path d="M235.397 182.885H233.612V197.726H235.397V182.885Z" fill="white"/>
<path d="M9.98896 224.093H8.24622V222.733C7.86367 223.235 7.36763 223.639 6.79873 223.913C6.22983 224.186 5.60427 224.321 4.97328 224.306C3.76097 224.193 2.63464 223.63 1.81475 222.73C0.994856 221.829 0.540436 220.655 0.540436 219.437C0.540436 218.219 0.994856 217.044 1.81475 216.144C2.63464 215.243 3.76097 214.681 4.97328 214.567C5.60533 214.545 6.23331 214.677 6.80336 214.951C7.37341 215.225 7.86852 215.633 8.24622 216.141V216.141V209.379H9.98896V224.093ZM8.24622 219.415C8.28248 218.996 8.22955 218.574 8.09091 218.177C7.95227 217.78 7.73107 217.417 7.4419 217.111C7.15273 216.806 6.80216 216.565 6.41328 216.405C6.0244 216.246 5.60605 216.17 5.1858 216.183C4.38746 216.275 3.65065 216.657 3.11575 217.257C2.58085 217.857 2.28524 218.633 2.28524 219.437C2.28524 220.241 2.58085 221.017 3.11575 221.616C3.65065 222.216 4.38746 222.599 5.1858 222.69C5.60809 222.697 6.02723 222.616 6.41614 222.451C6.80504 222.287 7.15504 222.042 7.4435 221.733C7.73196 221.425 7.95246 221.059 8.09073 220.66C8.22901 220.26 8.28198 219.836 8.24622 219.415" fill="white"/>
<path d="M13.9843 220.096C14.0493 220.867 14.4164 221.582 15.0056 222.083C15.5947 222.585 16.3582 222.834 17.1297 222.775C17.6319 222.765 18.1247 222.637 18.5679 222.4C19.0111 222.164 19.3922 221.826 19.6801 221.414L20.9977 222.435C20.4949 223.069 19.8449 223.571 19.1042 223.897C18.3634 224.223 17.5544 224.363 16.7472 224.306C16.1043 224.331 15.4633 224.221 14.8657 223.982C14.2682 223.744 13.7275 223.382 13.2786 222.921C12.8297 222.46 12.4827 221.909 12.2601 221.306C12.0375 220.702 11.9443 220.058 11.9865 219.415C11.9674 218.759 12.0855 218.106 12.3331 217.498C12.5807 216.889 12.9524 216.34 13.4244 215.883C13.8965 215.427 14.4585 215.074 15.0746 214.848C15.6906 214.621 16.3471 214.526 17.0022 214.567C17.6427 214.515 18.2868 214.608 18.8861 214.84C19.4853 215.073 20.0241 215.438 20.4619 215.909C20.8997 216.38 21.2251 216.943 21.4136 217.558C21.6021 218.173 21.6489 218.822 21.5503 219.458V220.096H13.9843ZM19.5525 218.65C19.5762 218.303 19.5274 217.954 19.4093 217.627C19.2912 217.3 19.1064 217.001 18.8665 216.749C18.6267 216.497 18.3371 216.298 18.0161 216.164C17.6952 216.03 17.3499 215.964 17.0022 215.971C16.2681 215.958 15.5577 216.23 15.0191 216.729C14.4806 217.229 14.1555 217.917 14.1118 218.65H19.5525Z" fill="white"/>
<path d="M30.9019 209.251H29.1592V224.093H30.9019V209.251Z" fill="white"/>
<path d="M38.2555 214.567C39.2203 214.584 40.1585 214.886 40.952 215.435C41.7454 215.985 42.3586 216.757 42.7143 217.654C43.0699 218.552 43.1522 219.534 42.9506 220.479C42.749 221.423 42.2727 222.286 41.5816 222.96C40.8904 223.633 40.0155 224.087 39.0669 224.265C38.1183 224.442 37.1386 224.334 36.2511 223.955C35.3637 223.576 34.6082 222.942 34.0799 222.135C33.5516 221.327 33.274 220.381 33.2823 219.415C33.2821 218.768 33.4115 218.127 33.6629 217.53C33.9144 216.933 34.2828 216.393 34.7463 215.941C35.2099 215.489 35.7592 215.135 36.3619 214.899C36.9646 214.663 37.6085 214.55 38.2555 214.567ZM38.2555 222.69C39.0538 222.598 39.7906 222.216 40.3255 221.616C40.8604 221.016 41.156 220.24 41.156 219.436C41.156 218.632 40.8604 217.857 40.3255 217.257C39.7906 216.657 39.0538 216.275 38.2555 216.183C37.4571 216.275 36.7203 216.657 36.1854 217.257C35.6505 217.857 35.3549 218.632 35.3549 219.436C35.3549 220.24 35.6505 221.016 36.1854 221.616C36.7203 222.216 37.4571 222.598 38.2555 222.69" fill="white"/>
<path d="M50.2843 217.119C50.0714 216.823 49.79 216.583 49.4643 216.42C49.1385 216.258 48.7782 216.176 48.4141 216.183C47.5639 216.183 46.8413 216.566 46.8413 217.246C46.8413 217.927 48.4566 218.522 49.2217 218.692C50.7519 219.075 51.942 219.67 51.942 221.414C51.942 223.157 49.9868 224.306 48.159 224.306C47.4753 224.366 46.7875 224.249 46.1622 223.966C45.5368 223.683 44.9948 223.243 44.5885 222.69L45.9062 221.584C46.1841 221.915 46.528 222.184 46.9159 222.375C47.3039 222.565 47.7273 222.672 48.159 222.69C49.0516 222.69 50.0293 222.307 50.0293 221.499C50.0293 220.691 48.5841 220.223 47.819 220.053C46.2888 219.713 44.9711 219.202 44.9711 217.416C44.9711 215.63 46.7563 214.567 48.4991 214.567C49.117 214.527 49.7348 214.647 50.293 214.916C50.8513 215.184 51.3313 215.591 51.687 216.098L50.2843 217.119Z" fill="white"/>
<path d="M59.9758 210.187H64.864C68.392 210.187 69.1146 212.313 69.1146 214.057C69.1079 214.986 68.756 215.879 68.1275 216.563C67.499 217.247 66.6388 217.672 65.7141 217.757L69.6671 224.093H67.2868L63.9714 217.884H61.8461V224.008H59.9758V210.187ZM61.8461 216.311H64.3114C65.7991 216.311 67.2868 215.971 67.2868 214.057C67.2868 212.143 65.7991 211.845 64.3114 211.845H61.8461V216.311Z" fill="white"/>
<path d="M72.855 220.096C72.8819 220.476 72.9837 220.847 73.1544 221.188C73.3251 221.528 73.5614 221.832 73.8498 222.081C74.1381 222.33 74.4728 222.519 74.8346 222.638C75.1964 222.757 75.5782 222.804 75.958 222.775C76.4602 222.765 76.9529 222.637 77.3961 222.4C77.8394 222.164 78.2204 221.826 78.5083 221.414L79.8685 222.435C79.3632 223.066 78.7128 223.566 77.9727 223.892C77.2326 224.218 76.4247 224.36 75.6179 224.306C74.9716 224.337 74.3259 224.232 73.7232 223.996C73.1205 223.76 72.5745 223.399 72.121 222.937C71.6674 222.476 71.3166 221.923 71.0915 221.316C70.8663 220.709 70.7721 220.061 70.8148 219.415C70.7974 218.778 70.9095 218.143 71.1442 217.55C71.3789 216.956 71.7313 216.417 72.1803 215.964C72.6292 215.511 73.1653 215.153 73.7561 214.913C74.347 214.673 74.9803 214.556 75.6179 214.567C76.2584 214.515 76.9026 214.608 77.5018 214.84C78.1011 215.073 78.6398 215.438 79.0776 215.909C79.5154 216.38 79.8408 216.943 80.0293 217.558C80.2179 218.173 80.2646 218.822 80.166 219.458V220.096H72.855ZM78.4233 218.65C78.4422 218.289 78.3844 217.929 78.2538 217.593C78.1231 217.256 77.9227 216.951 77.6656 216.698C77.4084 216.445 77.1006 216.249 76.7622 216.124C76.4239 215.998 76.0629 215.946 75.7029 215.971C74.9762 215.969 74.2764 216.246 73.747 216.744C73.2175 217.242 72.8984 217.924 72.855 218.65H78.4233Z" fill="white"/>
<path d="M91.7276 224.008C91.7417 224.668 91.617 225.325 91.3616 225.934C91.1062 226.543 90.7258 227.092 90.2451 227.545C89.7643 227.998 89.1938 228.345 88.5705 228.564C87.9473 228.782 87.2851 228.867 86.6269 228.813C85.7939 228.845 84.963 228.712 84.1822 228.42C83.4014 228.128 82.6864 227.683 82.0788 227.112L83.2689 225.624C83.6731 226.109 84.1805 226.499 84.754 226.764C85.3275 227.029 85.9528 227.162 86.5844 227.155C87.0284 227.214 87.48 227.173 87.9058 227.034C88.3315 226.894 88.7203 226.66 89.0431 226.35C89.3659 226.039 89.6145 225.659 89.7702 225.239C89.9259 224.819 89.9847 224.369 89.9423 223.923V222.562C89.6017 223.093 89.1283 223.525 88.5691 223.816C88.0098 224.107 87.3842 224.246 86.7544 224.22C86.1243 224.232 85.4983 224.116 84.9149 223.877C84.3314 223.639 83.8027 223.284 83.361 222.834C82.9194 222.384 82.5741 221.849 82.3463 221.261C82.1185 220.673 82.013 220.045 82.0363 219.415C82.0007 218.78 82.0973 218.144 82.3201 217.548C82.543 216.953 82.8871 216.41 83.3306 215.954C83.7742 215.498 84.3076 215.139 84.897 214.901C85.4863 214.662 86.1188 214.548 86.7544 214.567C87.3799 214.548 88.0007 214.682 88.5633 214.956C89.126 215.23 89.6138 215.636 89.9848 216.14V214.78H91.7701L91.7276 224.008ZM83.8215 219.415C83.8215 220.227 84.1439 221.006 84.7179 221.58C85.2918 222.154 86.0703 222.477 86.8819 222.477C87.6936 222.477 88.472 222.154 89.046 221.58C89.6199 221.006 89.9423 220.227 89.9423 219.415C89.9423 218.603 89.6199 217.824 89.046 217.25C88.472 216.676 87.6936 216.353 86.8819 216.353C86.0703 216.353 85.2918 216.676 84.7179 217.25C84.1439 217.824 83.8215 218.603 83.8215 219.415" fill="white"/>
<path d="M95.3832 210.144C95.5731 210.11 95.7682 210.117 95.9548 210.166C96.1415 210.216 96.315 210.305 96.4632 210.429C96.6114 210.553 96.7306 210.708 96.8124 210.883C96.8942 211.057 96.9366 211.248 96.9366 211.441C96.9366 211.634 96.8942 211.825 96.8124 212C96.7306 212.175 96.6114 212.33 96.4632 212.453C96.315 212.577 96.1415 212.667 95.9548 212.716C95.7682 212.765 95.5731 212.773 95.3832 212.738C95.0796 212.683 94.805 212.523 94.6072 212.286C94.4095 212.049 94.3012 211.75 94.3012 211.441C94.3012 211.133 94.4095 210.834 94.6072 210.597C94.805 210.36 95.0796 210.199 95.3832 210.144V210.144ZM94.4906 214.78H96.2758V224.093H94.4906V214.78Z" fill="white"/>
<path d="M104.012 217.119C103.779 216.813 103.476 216.568 103.128 216.406C102.78 216.243 102.398 216.166 102.014 216.183C101.164 216.183 100.441 216.566 100.441 217.246C100.441 217.927 102.014 218.522 102.822 218.692C104.352 219.075 105.5 219.67 105.5 221.414C105.5 223.158 103.587 224.306 101.759 224.306C101.075 224.37 100.386 224.255 99.7596 223.972C99.1335 223.688 98.592 223.246 98.1886 222.69L99.5063 221.584C99.7841 221.915 100.128 222.185 100.516 222.375C100.904 222.565 101.327 222.673 101.759 222.69C102.652 222.69 103.629 222.307 103.629 221.499C103.629 220.691 102.142 220.223 101.377 220.053C99.8888 219.713 98.5712 219.203 98.5712 217.417C98.5712 215.63 100.356 214.567 102.099 214.567C102.712 214.522 103.325 214.641 103.878 214.909C104.43 215.178 104.902 215.588 105.245 216.098L104.012 217.119Z" fill="white"/>
<path d="M112.768 216.311H110.26V220.563C110.26 221.626 110.26 222.732 111.578 222.732C112.008 222.744 112.433 222.641 112.81 222.434V224.051C112.315 224.268 111.778 224.369 111.238 224.348C108.517 224.348 108.475 222.69 108.475 221.201V216.311H106.265V214.78H108.305V212.186H110.09V214.78H112.598L112.768 216.311Z" fill="white"/>
<path d="M115.021 214.779H116.806V216.225C117.071 215.722 117.468 215.302 117.955 215.009C118.443 214.717 119.001 214.564 119.569 214.567H120.377V216.481H119.526C117.784 216.481 116.849 217.416 116.849 219.457V224.135H115.063L115.021 214.779Z" fill="white"/>
<path d="M126.455 214.567C127.42 214.584 128.358 214.886 129.151 215.435C129.945 215.985 130.558 216.757 130.914 217.654C131.269 218.552 131.352 219.534 131.15 220.479C130.949 221.423 130.472 222.286 129.781 222.96C129.09 223.633 128.215 224.087 127.266 224.265C126.318 224.442 125.338 224.334 124.451 223.955C123.563 223.576 122.808 222.942 122.279 222.135C121.751 221.327 121.474 220.381 121.482 219.415C121.482 218.768 121.611 218.127 121.862 217.53C122.114 216.933 122.482 216.393 122.946 215.941C123.409 215.489 123.959 215.135 124.561 214.899C125.164 214.663 125.808 214.55 126.455 214.567ZM126.455 222.69C127.253 222.598 127.99 222.216 128.525 221.616C129.06 221.016 129.356 220.24 129.356 219.436C129.356 218.632 129.06 217.857 128.525 217.257C127.99 216.657 127.253 216.275 126.455 216.183C125.657 216.275 124.92 216.657 124.385 217.257C123.85 217.857 123.554 218.632 123.554 219.436C123.554 220.24 123.85 221.016 124.385 221.616C124.92 222.216 125.657 222.598 126.455 222.69" fill="white"/>
<path d="M138.526 217.119C138.306 216.831 138.024 216.597 137.699 216.435C137.375 216.272 137.019 216.186 136.656 216.183C135.806 216.183 135.083 216.566 135.083 217.246C135.083 217.927 136.656 218.522 137.464 218.692C138.994 219.075 140.142 219.67 140.142 221.414C140.142 223.158 138.229 224.306 136.401 224.306C135.717 224.37 135.028 224.255 134.402 223.972C133.775 223.688 133.234 223.246 132.831 222.69L134.148 221.584C134.426 221.915 134.77 222.185 135.158 222.375C135.546 222.565 135.969 222.673 136.401 222.69C137.294 222.69 138.271 222.307 138.271 221.499C138.271 220.691 136.826 220.223 136.061 220.053C134.531 219.713 133.171 219.203 133.171 217.417C133.171 215.63 134.998 214.567 136.741 214.567C137.354 214.522 137.967 214.641 138.52 214.909C139.072 215.178 139.544 215.588 139.887 216.098L138.526 217.119Z" fill="white"/>
<path d="M148.175 210.187H153.021C156.592 210.187 157.484 212.313 157.484 214.057C157.484 215.8 156.634 217.884 153.021 217.884H150.046V224.008H148.133L148.175 210.187ZM150.088 216.311H152.554C154.041 216.311 155.529 215.971 155.529 214.057C155.529 212.143 154.041 211.845 152.554 211.845H150.088V216.311Z" fill="white"/>
<path d="M167.6 224.093H165.773V222.647C165.47 223.184 165.022 223.624 164.481 223.917C163.94 224.211 163.327 224.345 162.712 224.306C162.249 224.333 161.786 224.259 161.355 224.089C160.923 223.919 160.534 223.657 160.214 223.321C159.894 222.985 159.652 222.583 159.503 222.143C159.355 221.704 159.304 221.237 159.354 220.776V214.78H161.097V220.266C161.097 222.009 162.075 222.69 163.222 222.69C164.37 222.69 165.815 221.754 165.815 219.585V214.78H167.558L167.6 224.093ZM164.242 210.187H166.75L163.817 213.036H162.202L164.242 210.187Z" fill="white"/>
<path d="M170.278 209.379H172.021V216.268C172.399 215.761 172.894 215.353 173.464 215.079C174.034 214.805 174.662 214.673 175.294 214.695C176.506 214.808 177.633 215.371 178.453 216.271C179.272 217.172 179.727 218.346 179.727 219.564C179.727 220.782 179.272 221.957 178.453 222.857C177.633 223.758 176.506 224.32 175.294 224.434C174.663 224.449 174.038 224.314 173.469 224.04C172.9 223.767 172.404 223.362 172.021 222.86V222.86V224.221H170.278V209.379ZM178.184 219.543C178.151 218.937 177.941 218.355 177.581 217.867C177.22 217.379 176.725 217.008 176.156 216.799C175.587 216.59 174.969 216.552 174.379 216.69C173.788 216.829 173.251 217.137 172.834 217.577C172.417 218.017 172.138 218.57 172.032 219.167C171.925 219.764 171.996 220.38 172.235 220.937C172.474 221.495 172.871 221.97 173.377 222.304C173.883 222.638 174.475 222.817 175.082 222.818C175.507 222.831 175.931 222.754 176.325 222.592C176.719 222.43 177.074 222.186 177.368 221.877C177.661 221.568 177.885 221.2 178.026 220.798C178.167 220.395 178.221 219.968 178.184 219.543" fill="white"/>
<path d="M184.177 209.251H182.392V224.093H184.177V209.251Z" fill="white"/>
<path d="M187.96 210.144C188.15 210.11 188.345 210.117 188.532 210.166C188.719 210.216 188.892 210.305 189.04 210.429C189.189 210.553 189.308 210.708 189.39 210.883C189.471 211.057 189.514 211.248 189.514 211.441C189.514 211.634 189.471 211.825 189.39 212C189.308 212.175 189.189 212.33 189.04 212.453C188.892 212.577 188.719 212.667 188.532 212.716C188.345 212.765 188.15 212.773 187.96 212.738C187.657 212.683 187.382 212.523 187.184 212.286C186.987 212.049 186.878 211.75 186.878 211.441C186.878 211.133 186.987 210.834 187.184 210.597C187.382 210.36 187.657 210.199 187.96 210.144V210.144ZM187.025 214.78H188.768V224.093H187.025V214.78Z" fill="white"/>
<path d="M198.29 217.246C198.008 216.914 197.656 216.65 197.258 216.474C196.861 216.297 196.429 216.212 195.994 216.226C195.582 216.229 195.176 216.319 194.801 216.49C194.426 216.661 194.091 216.909 193.819 217.218C193.546 217.527 193.341 217.89 193.218 218.283C193.095 218.676 193.056 219.091 193.104 219.5C193.075 219.909 193.13 220.319 193.266 220.705C193.403 221.091 193.617 221.445 193.896 221.744C194.176 222.044 194.514 222.282 194.889 222.445C195.265 222.607 195.67 222.691 196.079 222.69C196.517 222.695 196.95 222.603 197.347 222.419C197.745 222.235 198.095 221.964 198.375 221.627L199.607 222.902C198.925 223.619 198.043 224.114 197.077 224.323C196.11 224.531 195.102 224.444 194.186 224.073C193.269 223.701 192.485 223.063 191.936 222.24C191.387 221.417 191.097 220.447 191.106 219.458C191.07 218.81 191.17 218.161 191.4 217.554C191.63 216.947 191.985 216.395 192.441 215.934C192.898 215.473 193.447 215.113 194.051 214.878C194.656 214.642 195.304 214.536 195.952 214.567C196.618 214.549 197.281 214.672 197.896 214.929C198.512 215.185 199.066 215.569 199.522 216.056L198.29 217.246Z" fill="white"/>
<path d="M205.601 214.567C206.567 214.575 207.51 214.871 208.309 215.415C209.108 215.959 209.728 216.728 210.09 217.625C210.452 218.522 210.54 219.506 210.344 220.453C210.147 221.4 209.674 222.268 208.984 222.946C208.295 223.624 207.42 224.082 206.47 224.262C205.52 224.443 204.538 224.337 203.648 223.959C202.758 223.581 202 222.948 201.47 222.139C200.94 221.33 200.662 220.382 200.67 219.415C200.67 218.771 200.798 218.134 201.047 217.54C201.296 216.946 201.66 216.408 202.119 215.957C202.578 215.505 203.122 215.15 203.72 214.911C204.318 214.673 204.957 214.556 205.601 214.567V214.567ZM205.601 222.69C206.255 222.732 206.908 222.577 207.473 222.244C208.039 221.911 208.491 221.416 208.772 220.823C209.052 220.229 209.148 219.565 209.047 218.917C208.946 218.268 208.652 217.665 208.204 217.185C207.756 216.706 207.174 216.372 206.534 216.228C205.894 216.083 205.225 216.134 204.615 216.375C204.004 216.615 203.48 217.034 203.11 217.576C202.74 218.118 202.542 218.759 202.54 219.415C202.504 219.836 202.557 220.26 202.696 220.659C202.834 221.059 203.054 221.424 203.343 221.733C203.631 222.042 203.981 222.286 204.37 222.451C204.759 222.616 205.178 222.697 205.601 222.69" fill="white"/>
<path d="M217.672 217.119C217.46 216.823 217.178 216.583 216.852 216.42C216.527 216.258 216.166 216.176 215.802 216.183C214.952 216.183 214.272 216.566 214.272 217.246C214.272 217.927 215.845 218.522 216.61 218.692C218.14 219.075 219.33 219.67 219.33 221.414C219.33 223.157 217.417 224.306 215.59 224.306C214.899 224.373 214.203 224.26 213.569 223.977C212.936 223.693 212.387 223.25 211.977 222.69L213.294 221.584C213.582 221.914 213.934 222.183 214.328 222.373C214.723 222.563 215.152 222.671 215.59 222.69C216.482 222.69 217.46 222.307 217.46 221.499C217.46 220.691 215.972 220.223 215.207 220.053C213.677 219.713 212.359 219.202 212.359 217.416C212.359 215.63 214.144 214.567 215.887 214.567C216.505 214.527 217.123 214.647 217.681 214.916C218.239 215.184 218.719 215.591 219.075 216.098L217.672 217.119Z" fill="white"/>
<path d="M284.406 79.6723L273.057 82.7342L270.635 73.6335L281.984 70.5716L284.406 79.6723ZM278.881 58.9618L267.532 62.0237L265.066 52.923L276.288 49.8611L278.881 58.9618ZM273.355 38.2513L261.963 41.3132L259.541 32.2125L270.89 29.1931L273.355 38.2513Z" fill="#E5432C"/>
<path d="M271.23 83.4999L261.028 89.3685L256.31 81.2034L266.511 75.3347L271.23 83.4999ZM260.476 64.7881L250.317 70.6568L245.641 62.5342L255.8 56.6655L260.476 64.7881ZM249.764 46.2039L239.605 52.1152L234.887 43.95L245.088 38.0813L249.764 46.2039ZM239.053 27.7899L228.894 33.6586L224.176 25.4934L234.377 19.6247L239.053 27.7899ZM228.384 9.12065L218.225 15.0319L213.507 6.86673L223.708 0.998047L228.384 9.12065Z" fill="#E5432C"/>
<path d="M313.31 180.036L323.512 174.167L328.23 182.289L318.028 188.116L313.31 180.036ZM324.064 198.62L334.223 192.709L338.899 200.874L328.74 206.742L324.064 198.62ZM334.733 217.161L344.934 211.293L349.61 219.458L339.451 225.326L334.733 217.161ZM345.444 235.746L355.646 229.877L360.364 237.999L350.163 243.868L345.444 235.746Z" fill="#F6AA21"/>
<path d="M325.084 172.933L333.586 164.428L340.046 171.105L331.545 179.61L325.084 172.933ZM340.259 188.115L348.76 179.61L355.434 186.244L346.932 194.75L340.259 188.115ZM355.391 203.255L363.892 194.75L370.523 201.384L362.234 209.889L355.391 203.255Z" fill="#F6AA21"/>
<path d="M334.606 163.025L340.471 152.861L348.548 157.539L342.682 167.746L334.606 163.025ZM353.181 173.784L359.089 163.578L367.208 168.298L361.299 178.462L353.181 173.784Z" fill="#E5432C"/>
<path d="M341.279 150.99L344.297 139.635L353.393 142.102L350.333 153.456L341.279 150.99ZM361.979 156.561L364.997 145.206L374.094 147.63L371.033 158.985L361.979 156.561ZM382.552 162.089L385.57 150.734L394.666 153.159L391.606 164.556L382.552 162.089ZM403.253 167.66L406.271 156.305L415.367 158.73L412.306 170.084L403.253 167.66Z" fill="#E5432C"/>
<path d="M344.595 125.899H353.988V137.679H344.595V125.899ZM365.848 125.899H375.241V137.679H366.018L365.848 125.899ZM387.1 125.899H396.494V137.679H387.441L387.1 125.899ZM408.353 125.899H418.257V137.679H408.863L408.353 125.899ZM429.606 125.899H439V137.679H429.606V125.899Z" fill="#E5432C"/>
<path d="M344.297 123.9L341.279 112.545L350.333 110.121L353.393 121.476L344.297 123.9ZM364.997 118.372L361.979 107.017L371.076 104.55L374.051 115.82L364.997 118.372Z" fill="#00ABA9"/>
<path d="M340.514 110.717L334.648 100.51L342.767 95.7898L348.548 105.996L340.514 110.717ZM359.089 100L353.223 89.7936L361.299 85.0731L367.165 95.2795L359.089 100ZM377.621 89.2407L371.756 79.0768L379.917 74.3564L385.783 84.5628L377.621 89.2407ZM396.197 78.524L390.331 68.3601L398.449 63.6396L404.358 73.8461L396.197 78.524Z" fill="#00ABA9"/>
<path d="M333.415 98.8096L324.914 90.3042L331.545 83.6701L340.046 91.9628L333.415 98.8096ZM348.548 83.7551L340.046 75.4624L346.72 68.7857L355.008 77.291L348.548 83.7551ZM363.68 68.6156L355.391 60.1102L362.022 53.4761L370.523 61.7688L363.68 68.6156Z" fill="#7FB847"/>
<path d="M323.512 89.3685L313.353 83.4999L318.028 75.3347L328.23 81.2459L323.512 89.3685ZM334.266 70.8269L324.064 64.7881L328.782 56.6655L338.941 62.5342L334.266 70.8269ZM344.935 52.2427L334.776 46.374L339.494 38.2089L349.653 44.0776L344.935 52.2427ZM355.689 33.6586L345.487 27.7899L350.205 19.6247L360.364 25.536L355.689 33.6586ZM366.4 15.1169L356.241 9.24823L360.917 0.998047L371.076 6.95179L366.4 15.1169Z" fill="#7FB847"/>
<path d="M298.136 79.4173H286.404V70.0189H298.136V79.4173ZM298.136 58.154H286.404V48.5855H298.136V58.154ZM298.136 36.8906H286.404V27.1095H298.136V36.8906ZM298.136 15.6273H286.404V5.67603H298.136V15.6273Z" fill="#F6AA21"/>
<path d="M311.483 82.7342L300.176 79.6723L302.599 70.6141L313.948 73.6335L311.483 82.7342ZM317.051 62.0237L305.702 58.9618L308.125 49.9036L319.474 52.923L317.051 62.0237Z" fill="#F6AA21"/>
</svg>
