<svg width="285" height="152" viewBox="0 0 285 152" fill="none" xmlns="http://www.w3.org/2000/svg">
<path d="M21.6068 75.3917C20.7175 74.3365 19.5892 73.4903 18.3076 72.9167C17.0261 72.3431 15.6252 72.0576 14.2113 72.0818C11.9486 72.0818 9.27188 73.0879 9.27188 75.524C9.27188 81.3237 27.4845 76.6363 27.4569 89.2681C27.4569 96.9477 19.7579 99.6484 12.8868 99.6222C10.4414 99.684 8.01305 99.2159 5.78199 98.2527C3.55097 97.2903 1.57468 95.8576 0 94.061L5.27062 89.2943C6.21902 90.5113 7.44081 91.5073 8.84536 92.2085C10.2498 92.9097 11.801 93.2986 13.3835 93.3463C15.8395 93.3463 18.9025 92.4194 18.9025 89.8504C18.9025 83.2568 0.634682 87.6259 0.855441 75.9478C0.993418 68.4535 8.1405 65.3555 14.3218 65.6203C16.6469 65.5924 18.9503 66.0519 21.0713 66.9666C23.1922 67.8813 25.0796 69.2293 26.6015 70.9165L21.6068 75.3917Z" fill="#2B3E3C"/>
<path d="M63.468 98.695H55.4379V93.3984H55.1896C54.3266 95.2709 52.8834 96.8419 51.0564 97.8991C49.2294 98.9556 47.1075 99.4459 44.9794 99.3042C36.0387 99.3042 32.8652 93.2398 32.8652 86.6986V66.6262H41.1438V82.7265C41.1438 86.2486 41.3921 92.1276 47.2422 92.1276C53.0923 92.1276 55.1896 88.3939 55.1896 84.1302V66.7321H63.468V98.695Z" fill="#2B3E3C"/>
<path d="M71.1123 66.7323H79.0048V71.8693H79.1427C80.0166 70.0001 81.4661 68.4325 83.2966 67.3767C85.1263 66.3208 87.2495 65.828 89.3803 65.9644C98.3211 65.9644 101.495 72.0285 101.495 78.5691V98.6952H93.2156V82.5419C93.2156 79.0198 92.9397 73.1408 87.1171 73.1408C81.2946 73.1408 79.4732 76.9806 79.4732 81.2443V98.6952H71.1949L71.1123 66.7323Z" fill="#2B3E3C"/>
<path d="M129.696 94.4057H129.475C128.337 96.1171 126.747 97.5088 124.866 98.4397C122.986 99.3699 120.881 99.8051 118.769 99.7017C112.587 99.7017 106.875 96.2326 106.875 89.9305C106.875 80.1056 117.664 77.9872 126.191 78.8348L129.723 79.1787V78.1464C129.696 74.1473 126.936 72.2405 122.356 72.2405C119.067 72.215 115.891 73.3884 113.47 75.5242L108.862 71.1283C110.753 69.4149 112.982 68.0796 115.417 67.2025C117.853 66.3245 120.446 65.922 123.046 66.0177C137.257 66.0177 137.257 75.9219 137.229 80.4233V98.6956H129.696V94.4057ZM129.475 84.74L127.516 84.4754C122.99 83.8662 115.264 84.6339 115.264 89.2414C115.319 89.8781 115.506 90.4981 115.816 91.0643C116.125 91.6298 116.55 92.1302 117.064 92.5352C117.58 92.9402 118.174 93.2418 118.813 93.4224C119.451 93.6024 120.122 93.6575 120.783 93.5843C121.86 93.683 122.946 93.5682 123.974 93.2465C125.002 92.9254 125.951 92.4042 126.761 91.7164C127.571 91.0287 128.225 90.1884 128.682 89.2481C129.14 88.3078 129.391 87.2869 129.42 86.2492L129.475 84.74Z" fill="#2B3E3C"/>
<path d="M144.432 66.7326H152.71V72.0289H152.848C153.738 70.2329 155.155 68.7257 156.925 67.6907C158.693 66.6561 160.739 66.139 162.81 66.2031C163.822 66.228 164.825 66.3885 165.79 66.6797V74.4119C164.489 74.0479 163.144 73.8437 161.789 73.8034C160.643 73.7074 159.489 73.8417 158.401 74.1983C157.312 74.5543 156.313 75.1245 155.466 75.8721C154.619 76.619 153.944 77.5277 153.484 78.5392C153.024 79.5514 152.789 80.6435 152.793 81.7477V98.7217H144.515L144.432 66.7326Z" fill="#2B3E3C"/>
<path d="M170.812 66.7059H178.704V71.7373C179.961 69.8956 181.71 68.4106 183.767 67.4367C185.825 66.4635 188.117 66.0373 190.405 66.2028C200.67 66.2028 206.686 73.5649 206.796 83.0184C206.881 85.1206 206.53 87.2175 205.763 89.1882C204.997 91.1595 203.83 92.9642 202.331 94.4989C200.832 96.0337 199.03 97.2675 197.03 98.1285C195.03 98.9903 192.872 99.4618 190.681 99.5162C188.546 99.6297 186.412 99.2656 184.448 98.4523C182.485 97.6382 180.745 96.3984 179.367 94.8287H179.173V113.206H170.895L170.812 66.7059ZM188.611 73.3526C186.628 73.3103 184.677 73.8362 183.005 74.8625C181.334 75.8888 180.02 77.3691 179.229 79.1154C178.438 80.861 178.207 82.7934 178.565 84.6659C178.923 86.5385 179.854 88.2667 181.239 89.6294C182.624 90.9922 184.401 91.9285 186.342 92.3187C188.284 92.7096 190.302 92.5364 192.141 91.8211C193.98 91.1064 195.555 89.8827 196.666 88.3049C197.778 86.7279 198.373 84.8688 198.38 82.9653C198.436 81.7086 198.224 80.454 197.757 79.2793C197.289 78.1039 196.576 77.0333 195.661 76.1326C194.745 75.2319 193.648 74.5206 192.435 74.0431C191.223 73.5649 189.922 73.3298 188.611 73.3526Z" fill="#2B3E3C"/>
<path d="M12.8592 122.502H11.7278V121.601C11.5314 121.936 11.2407 122.21 10.8894 122.393C10.5379 122.575 10.1399 122.659 9.74103 122.634C9.44048 122.651 9.13966 122.606 8.85956 122.499C8.57953 122.393 8.32688 122.23 8.11933 122.021C7.91178 121.812 7.75429 121.562 7.65787 121.288C7.56144 121.014 7.52839 120.724 7.56102 120.436V116.702H8.69241V120.145C8.69241 121.231 9.32711 121.628 10.0722 121.628C10.8172 121.628 11.7554 121.019 11.7554 119.695V116.702H12.8868L12.8592 122.502Z" fill="#2B3E3C"/>
<path d="M14.5977 116.703H15.729V117.523C15.9745 117.206 16.2952 116.949 16.6647 116.774C17.0342 116.599 17.4418 116.511 17.8539 116.517C18.6409 116.588 19.3721 116.938 19.9044 117.498C20.4367 118.059 20.7317 118.791 20.7317 119.55C20.7317 120.308 20.4367 121.039 19.9044 121.6C19.3721 122.161 18.6409 122.511 17.8539 122.581C17.4665 122.614 17.0764 122.562 16.7131 122.429C16.3498 122.296 16.0227 122.086 15.7566 121.813V126.077H14.5977V116.703ZM15.729 119.615C15.7507 119.994 15.8877 120.358 16.123 120.662C16.3583 120.966 16.6815 121.197 17.0526 121.326C17.4236 121.456 17.8261 121.477 18.2099 121.389C18.5938 121.301 18.9422 121.107 19.2118 120.83C19.4815 120.553 19.6604 120.207 19.7265 119.833C19.7925 119.46 19.7428 119.075 19.5834 118.729C19.424 118.382 19.1621 118.088 18.8301 117.883C18.498 117.678 18.1106 117.572 17.7159 117.576C17.4405 117.568 17.1663 117.615 16.9118 117.717C16.6572 117.817 16.4282 117.97 16.2399 118.163C16.0518 118.356 15.9088 118.586 15.8207 118.836C15.7326 119.087 15.7013 119.352 15.729 119.615Z" fill="#2B3E3C"/>
<path d="M23.235 120.012C23.2773 120.495 23.5146 120.942 23.8962 121.259C24.2778 121.576 24.7734 121.736 25.277 121.708C25.604 121.692 25.9232 121.605 26.2101 121.454C26.4971 121.303 26.7442 121.09 26.9327 120.834L27.7882 121.469C27.4666 121.869 27.0455 122.186 26.5633 122.389C26.0812 122.593 25.5535 122.677 25.0286 122.634C24.6253 122.631 24.2267 122.55 23.8571 122.395C23.4876 122.239 23.1547 122.014 22.8786 121.732C22.6026 121.449 22.3891 121.116 22.2511 120.752C22.1132 120.388 22.0536 120.002 22.076 119.615C22.0494 119.215 22.1091 118.814 22.2515 118.437C22.3938 118.06 22.6157 117.716 22.9032 117.425C23.1907 117.134 23.5377 116.903 23.9224 116.747C24.3071 116.591 24.7213 116.512 25.139 116.517C25.5549 116.484 25.973 116.543 26.3621 116.687C26.7511 116.832 27.1009 117.059 27.3851 117.353C27.6693 117.645 27.8805 117.997 28.0029 118.379C28.1253 118.762 28.1557 119.167 28.0917 119.562V119.959L23.235 120.012ZM26.8499 119.165C26.8705 118.94 26.8399 118.713 26.7601 118.5C26.6805 118.287 26.5536 118.094 26.3883 117.933C26.223 117.772 26.0233 117.647 25.8028 117.567C25.5823 117.487 25.3465 117.454 25.1114 117.47C24.6303 117.463 24.1652 117.636 23.8148 117.952C23.4645 118.269 23.2565 118.704 23.235 119.165H26.8499Z" fill="#2B3E3C"/>
<path d="M29.4438 116.703H30.6029V117.603C30.7747 117.29 31.0328 117.028 31.3491 116.846C31.6654 116.664 32.0277 116.568 32.3965 116.57C32.5607 116.541 32.729 116.541 32.8933 116.57V117.762H32.3413C31.2099 117.762 30.6029 118.345 30.6029 119.616V122.528H29.4438V116.703Z" fill="#2B3E3C"/>
<path d="M34.8249 113.868C35.047 113.876 35.2575 113.965 35.412 114.118C35.5665 114.271 35.6529 114.476 35.6527 114.69C35.6527 114.9 35.5656 115.102 35.4102 115.251C35.255 115.4 35.0444 115.484 34.8249 115.484C34.7152 115.488 34.6058 115.47 34.5036 115.431C34.4014 115.392 34.3086 115.334 34.231 115.259C34.1533 115.185 34.0924 115.096 34.0522 114.998C34.012 114.9 33.9932 114.795 33.9971 114.69C33.9934 114.583 34.012 114.477 34.052 114.378C34.0919 114.278 34.1523 114.187 34.2296 114.111C34.3068 114.034 34.3993 113.973 34.5016 113.932C34.6038 113.89 34.7138 113.868 34.8249 113.868ZM34.2454 116.755H35.4044V122.554H34.2454V116.755Z" fill="#2B3E3C"/>
<path d="M37.198 116.702H38.357V117.603C38.5534 117.268 38.844 116.994 39.1955 116.812C39.5469 116.629 39.9449 116.545 40.3438 116.57C40.6443 116.552 40.9452 116.599 41.2252 116.705C41.5053 116.81 41.7579 116.974 41.9655 117.183C42.173 117.393 42.3305 117.643 42.427 117.917C42.5234 118.19 42.5564 118.481 42.5238 118.768V122.501H41.3924V119.165C41.3924 118.053 40.7301 117.655 40.0126 117.655C39.2952 117.655 38.3294 118.238 38.3294 119.589V122.581H37.1704L37.198 116.702Z" fill="#2B3E3C"/>
<path d="M47.5184 117.655H45.8902V120.304C45.8902 120.966 45.8902 121.654 46.7457 121.654C47.0334 121.659 47.3178 121.595 47.5735 121.469V122.475C47.2426 122.611 46.8844 122.674 46.5249 122.66C44.7588 122.66 44.7312 121.627 44.7312 120.701V117.655H43.4067V116.702H44.7312V115.087H45.8902V116.702H47.5184V117.655Z" fill="#2B3E3C"/>
<path d="M49.8643 120.013C49.8818 120.253 49.9486 120.487 50.0608 120.703C50.173 120.918 50.3284 121.11 50.5182 121.268C50.708 121.425 50.9283 121.545 51.1665 121.62C51.4047 121.696 51.6562 121.726 51.9063 121.707C52.2334 121.692 52.5526 121.605 52.8394 121.454C53.1263 121.302 53.3735 121.09 53.562 120.834L54.4175 121.469C54.0977 121.871 53.6768 122.189 53.1942 122.393C52.7117 122.597 52.1831 122.68 51.658 122.634C51.2397 122.653 50.8218 122.588 50.4312 122.443C50.0406 122.298 49.686 122.076 49.3898 121.792C49.0937 121.508 48.8627 121.167 48.7115 120.793C48.5604 120.418 48.4925 120.017 48.5121 119.615C48.4878 119.2 48.5556 118.784 48.711 118.396C48.8664 118.008 49.106 117.656 49.4137 117.363C49.7215 117.07 50.0905 116.843 50.4964 116.698C50.9023 116.552 51.3359 116.49 51.7684 116.517C52.182 116.489 52.597 116.55 52.9825 116.696C53.3681 116.843 53.7142 117.071 53.9953 117.364C54.2764 117.656 54.485 118.006 54.6059 118.387C54.7268 118.767 54.7567 119.169 54.6934 119.562V119.96L49.8643 120.013ZM53.4793 119.165C53.4999 118.94 53.4692 118.713 53.3895 118.5C53.3098 118.287 53.1829 118.094 53.0177 117.933C52.8523 117.772 52.6526 117.647 52.4321 117.567C52.2117 117.487 51.9758 117.454 51.7408 117.471C51.2597 117.463 50.7946 117.636 50.4442 117.952C50.0938 118.269 49.8858 118.704 49.8643 119.165H53.4793Z" fill="#2B3E3C"/>
<path d="M56.073 116.702H57.2044V117.602C57.4078 117.268 57.7037 116.995 58.0594 116.813C58.415 116.63 58.8164 116.546 59.2188 116.57C59.5193 116.552 59.8202 116.599 60.1003 116.704C60.3803 116.81 60.6329 116.973 60.8405 117.183C61.048 117.392 61.2055 117.642 61.3019 117.916C61.3984 118.19 61.4314 118.481 61.3988 118.767V122.501H60.2398V119.165C60.2398 118.053 59.6051 117.655 58.86 117.655C58.115 117.655 57.1768 118.238 57.1768 119.588V122.581H56.0454L56.073 116.702Z" fill="#2B3E3C"/>
<path d="M69.2082 122.501H68.0493V121.813C67.8023 122.119 67.4837 122.364 67.1193 122.53C66.755 122.696 66.3551 122.777 65.952 122.767C65.165 122.696 64.4338 122.346 63.9015 121.785C63.3692 121.224 63.0742 120.493 63.0742 119.734C63.0742 118.976 63.3692 118.245 63.9015 117.684C64.4338 117.123 65.165 116.773 65.952 116.702C66.3561 116.686 66.7583 116.764 67.1238 116.929C67.4893 117.095 67.807 117.345 68.0493 117.655V113.26H69.2082V122.501ZM68.0493 119.615C68.0276 119.242 67.8923 118.883 67.66 118.584C67.4277 118.284 67.1088 118.056 66.7428 117.929C66.3769 117.801 65.98 117.78 65.6014 117.868C65.2228 117.954 64.8794 118.146 64.6136 118.42C64.3479 118.693 64.1716 119.034 64.1066 119.403C64.0415 119.771 64.0908 120.15 64.248 120.492C64.4053 120.833 64.6637 121.123 64.9912 121.325C65.3186 121.527 65.7008 121.632 66.09 121.628C66.3605 121.632 66.6291 121.583 66.8782 121.481C67.1274 121.38 67.3515 121.229 67.5362 121.04C67.721 120.85 67.8621 120.626 67.9504 120.38C68.0388 120.135 68.0725 119.874 68.0493 119.615Z" fill="#2B3E3C"/>
<path d="M71.7465 120.012C71.764 120.253 71.8313 120.487 71.9433 120.703C72.0553 120.918 72.2108 121.11 72.4006 121.267C72.5903 121.425 72.8109 121.545 73.049 121.62C73.2871 121.695 73.5385 121.725 73.7891 121.708C74.112 121.69 74.4264 121.602 74.7086 121.451C74.9901 121.3 75.2331 121.088 75.4172 120.834L76.3002 121.469C75.9788 121.869 75.5573 122.186 75.0755 122.389C74.593 122.593 74.065 122.677 73.5406 122.634C73.1232 122.653 72.7066 122.588 72.3172 122.443C71.9279 122.298 71.575 122.076 71.2809 121.791C70.9875 121.506 70.7585 121.165 70.6107 120.791C70.463 120.416 70.3986 120.016 70.4224 119.615C70.3979 119.2 70.4658 118.784 70.6212 118.396C70.7767 118.008 71.0162 117.655 71.3236 117.363C71.6317 117.07 72.0007 116.843 72.4069 116.698C72.8123 116.551 73.2458 116.49 73.6785 116.517C74.0945 116.484 74.5125 116.543 74.9018 116.687C75.2905 116.832 75.6406 117.059 75.9249 117.353C76.2085 117.645 76.42 117.997 76.5425 118.379C76.6651 118.762 76.6952 119.167 76.6314 119.562V119.959L71.7465 120.012ZM75.4172 119.165C75.4382 118.938 75.4067 118.708 75.3255 118.493C75.2443 118.279 75.1147 118.083 74.9467 117.921C74.7779 117.76 74.5748 117.636 74.3507 117.558C74.1274 117.48 73.8879 117.45 73.6512 117.47C73.4096 117.459 73.168 117.495 72.9412 117.575C72.7143 117.655 72.5063 117.777 72.3291 117.935C72.1513 118.093 72.0091 118.283 71.909 118.494C71.8089 118.705 71.7542 118.933 71.7465 119.165H75.4172Z" fill="#2B3E3C"/>
<path d="M78.0107 116.702H79.1423V117.602C79.3412 117.27 79.6318 116.998 79.9826 116.816C80.3334 116.634 80.7305 116.548 81.1289 116.57C81.4314 116.548 81.7353 116.591 82.0189 116.695C82.3025 116.8 82.5588 116.963 82.7696 117.172C82.9804 117.382 83.14 117.634 83.2381 117.909C83.3361 118.185 83.3697 118.478 83.3368 118.767V122.501H82.1772V119.165C82.1772 118.053 81.5428 117.655 80.7977 117.655C80.0526 117.655 79.1143 118.238 79.1143 119.588V122.581H77.9834L78.0107 116.702Z" fill="#2B3E3C"/>
<path d="M89.4076 118.238C89.2185 118.032 88.9847 117.869 88.7221 117.759C88.4602 117.649 88.1759 117.596 87.8902 117.602C87.6227 117.604 87.3587 117.661 87.115 117.767C86.872 117.874 86.6542 118.028 86.4778 118.22C86.3006 118.412 86.1676 118.639 86.0877 118.884C86.0079 119.128 85.9827 119.387 86.0135 119.641C85.9946 119.898 86.031 120.156 86.1213 120.398C86.2117 120.64 86.3531 120.862 86.5373 121.049C86.7215 121.235 86.9441 121.384 87.1913 121.483C87.4385 121.582 87.7046 121.632 87.9728 121.628C88.2529 121.633 88.5309 121.576 88.7844 121.461C89.0386 121.346 89.2613 121.177 89.4349 120.966L90.2353 121.76C89.9433 122.057 89.5862 122.289 89.1912 122.44C88.7956 122.591 88.3698 122.657 87.9448 122.634C87.5281 122.656 87.1108 122.595 86.7201 122.453C86.33 122.311 85.975 122.092 85.6781 121.81C85.3812 121.527 85.1501 121.189 84.9989 120.815C84.8469 120.442 84.779 120.042 84.7993 119.641C84.7678 119.232 84.8266 118.822 84.9722 118.436C85.1179 118.05 85.3462 117.698 85.6438 117.403C85.9407 117.109 86.2992 116.877 86.6955 116.724C87.0919 116.571 87.5183 116.501 87.9448 116.517C88.3775 116.505 88.8082 116.582 89.2073 116.742C89.6072 116.902 89.9671 117.141 90.2633 117.444L89.4076 118.238Z" fill="#2B3E3C"/>
<path d="M91.8914 113.868C92.1133 113.876 92.3234 113.965 92.4782 114.118C92.6329 114.271 92.719 114.476 92.719 114.69C92.6833 114.879 92.579 115.05 92.4256 115.173C92.2716 115.296 92.0776 115.364 91.8773 115.364C91.6771 115.364 91.4831 115.296 91.329 115.173C91.1757 115.05 91.0714 114.879 91.0356 114.69C91.0356 114.582 91.0581 114.475 91.1008 114.375C91.1435 114.276 91.2065 114.185 91.2863 114.109C91.3655 114.033 91.46 113.973 91.5636 113.931C91.6673 113.89 91.7786 113.868 91.8914 113.868ZM91.3115 116.755H92.4431V122.554H91.3115V116.755Z" fill="#2B3E3C"/>
<path d="M94.2913 117.418C94.9181 116.864 95.731 116.544 96.5818 116.517C98.3479 116.517 99.0929 117.444 99.0929 118.424V121.39C99.0929 121.787 99.0929 122.131 99.0929 122.449H98.2379C98.2379 122.157 98.2379 121.866 98.2379 121.575C98.0131 121.912 97.6959 122.185 97.3213 122.362C96.9467 122.54 96.5293 122.615 96.1127 122.581C95.8578 122.607 95.5994 122.582 95.355 122.508C95.1099 122.433 94.8831 122.313 94.6891 122.151C94.4951 121.989 94.3383 121.792 94.2269 121.57C94.1156 121.347 94.0533 121.106 94.0435 120.86C94.0435 119.377 95.5336 118.847 97.3549 118.847H98.1826V118.609C98.1833 118.437 98.1469 118.267 98.0748 118.11C98.0026 117.953 97.8962 117.812 97.7632 117.697C97.6308 117.582 97.474 117.495 97.3031 117.442C97.1329 117.39 96.953 117.372 96.7751 117.391C96.1288 117.391 95.507 117.628 95.0364 118.053L94.2913 117.418ZM97.5202 119.721C96.4719 119.721 95.1197 119.907 95.1197 120.834C95.1197 121.76 95.6162 121.76 96.4439 121.76C96.6757 121.773 96.9075 121.737 97.1231 121.656C97.3395 121.574 97.5342 121.447 97.6945 121.286C97.8542 121.125 97.976 120.932 98.051 120.721C98.1259 120.511 98.1518 120.287 98.1273 120.065V119.721H97.5202Z" fill="#2B3E3C"/>
<path d="M104.723 113.842H106.323L111.29 120.966H111.318V113.842H112.532V122.501H110.987L105.964 115.405H105.937V122.501H104.723V113.842Z" fill="#2B3E3C"/>
<path d="M114.574 117.417C115.235 116.855 116.092 116.552 116.975 116.57C118.741 116.57 119.486 117.497 119.486 118.477V121.442C119.457 121.795 119.457 122.15 119.486 122.501H118.658C118.658 122.211 118.658 121.919 118.658 121.628C118.431 121.963 118.114 122.234 117.74 122.411C117.366 122.588 116.949 122.665 116.534 122.634C116.276 122.663 116.015 122.642 115.767 122.569C115.518 122.497 115.289 122.377 115.092 122.215C114.894 122.053 114.735 121.853 114.622 121.63C114.509 121.405 114.446 121.162 114.437 120.913C114.437 119.43 115.954 118.9 117.775 118.9H118.603V118.662C118.604 118.488 118.567 118.315 118.493 118.156C118.42 117.997 118.311 117.855 118.174 117.739C118.039 117.624 117.878 117.537 117.705 117.487C117.531 117.436 117.348 117.421 117.168 117.444C116.852 117.441 116.537 117.497 116.244 117.611C115.95 117.725 115.683 117.893 115.457 118.106L114.574 117.417ZM117.803 119.721C116.726 119.721 115.402 119.907 115.402 120.834C115.402 121.76 115.899 121.76 116.699 121.76C116.931 121.773 117.165 121.736 117.382 121.655C117.599 121.573 117.795 121.448 117.957 121.287C118.119 121.127 118.244 120.935 118.322 120.724C118.4 120.513 118.43 120.288 118.41 120.065V119.721H117.803Z" fill="#2B3E3C"/>
<path d="M125.474 118.238C125.284 118.032 125.05 117.869 124.788 117.759C124.526 117.649 124.242 117.596 123.956 117.602C123.688 117.604 123.424 117.661 123.181 117.767C122.938 117.874 122.721 118.028 122.543 118.22C122.367 118.412 122.234 118.639 122.154 118.884C122.074 119.128 122.048 119.387 122.08 119.641C122.065 119.897 122.104 120.153 122.196 120.394C122.288 120.634 122.429 120.854 122.613 121.04C122.796 121.226 123.018 121.374 123.263 121.475C123.508 121.576 123.772 121.628 124.039 121.628C124.319 121.633 124.597 121.576 124.851 121.461C125.105 121.346 125.327 121.177 125.501 120.966L126.302 121.76C126.008 122.055 125.651 122.286 125.256 122.438C124.861 122.588 124.436 122.655 124.011 122.634C123.595 122.656 123.177 122.595 122.786 122.453C122.396 122.311 122.041 122.092 121.744 121.81C121.448 121.527 121.217 121.189 121.065 120.815C120.913 120.442 120.845 120.042 120.866 119.641C120.834 119.232 120.893 118.822 121.039 118.436C121.184 118.05 121.413 117.698 121.709 117.403C122.006 117.109 122.365 116.877 122.762 116.724C123.158 116.571 123.584 116.501 124.011 116.517C124.444 116.505 124.875 116.582 125.274 116.742C125.674 116.902 126.033 117.141 126.329 117.444L125.474 118.238Z" fill="#2B3E3C"/>
<path d="M127.957 113.868C128.179 113.876 128.39 113.965 128.545 114.118C128.699 114.271 128.785 114.476 128.785 114.69C128.749 114.879 128.645 115.05 128.491 115.173C128.338 115.296 128.144 115.364 127.944 115.364C127.743 115.364 127.549 115.296 127.395 115.173C127.241 115.05 127.138 114.879 127.102 114.69C127.102 114.582 127.124 114.475 127.167 114.375C127.21 114.276 127.273 114.185 127.353 114.109C127.432 114.033 127.526 113.973 127.63 113.931C127.734 113.89 127.845 113.868 127.957 113.868ZM127.378 116.755H128.51V122.554H127.378V116.755Z" fill="#2B3E3C"/>
<path d="M133.256 116.517C133.882 116.522 134.493 116.705 135.011 117.043C135.529 117.381 135.932 117.858 136.168 118.415C136.404 118.972 136.463 119.584 136.337 120.173C136.212 120.761 135.907 121.302 135.463 121.725C135.017 122.148 134.452 122.436 133.837 122.551C133.223 122.666 132.585 122.604 132.008 122.373C131.429 122.142 130.935 121.752 130.588 121.251C130.24 120.751 130.055 120.163 130.055 119.562C130.055 119.16 130.138 118.762 130.299 118.391C130.46 118.019 130.696 117.682 130.994 117.4C131.291 117.116 131.645 116.892 132.033 116.741C132.421 116.589 132.837 116.514 133.256 116.517ZM133.256 121.574C133.682 121.601 134.106 121.504 134.475 121.296C134.842 121.087 135.136 120.777 135.317 120.406C135.498 120.035 135.559 119.62 135.491 119.216C135.423 118.811 135.23 118.435 134.936 118.138C134.643 117.84 134.262 117.635 133.844 117.547C133.427 117.461 132.992 117.496 132.597 117.65C132.2 117.804 131.862 118.068 131.625 118.41C131.389 118.751 131.264 119.153 131.269 119.562C131.245 119.823 131.279 120.086 131.37 120.333C131.46 120.58 131.604 120.807 131.791 120.997C131.979 121.187 132.207 121.337 132.459 121.437C132.711 121.536 132.983 121.583 133.256 121.574Z" fill="#2B3E3C"/>
<path d="M137.974 116.702H139.133V117.602C139.327 117.266 139.618 116.99 139.969 116.808C140.321 116.624 140.72 116.542 141.12 116.57C141.421 116.552 141.721 116.599 142.001 116.705C142.281 116.81 142.534 116.974 142.742 117.183C142.949 117.393 143.107 117.642 143.204 117.917C143.3 118.19 143.332 118.481 143.3 118.767V122.501H142.113V119.165C142.113 118.053 141.452 117.655 140.734 117.655C140.016 117.655 139.05 118.238 139.05 119.588V122.581H137.974V116.702Z" fill="#2B3E3C"/>
<path d="M145.011 117.417C145.671 116.855 146.529 116.552 147.412 116.57C149.178 116.57 149.923 117.497 149.923 118.477V121.442C149.923 121.84 149.923 122.184 149.923 122.501H149.012C149.012 122.211 149.012 121.919 149.012 121.628C148.785 121.963 148.468 122.234 148.094 122.411C147.72 122.588 147.303 122.665 146.888 122.634C146.632 122.664 146.372 122.642 146.125 122.569C145.879 122.497 145.65 122.376 145.456 122.213C145.26 122.051 145.103 121.852 144.994 121.628C144.884 121.404 144.824 121.16 144.818 120.913C144.818 119.43 146.281 118.9 148.129 118.9H148.957V118.662C148.959 118.488 148.921 118.315 148.848 118.156C148.774 117.997 148.665 117.855 148.529 117.739C148.393 117.624 148.233 117.537 148.059 117.487C147.886 117.436 147.702 117.421 147.522 117.444C147.206 117.441 146.891 117.497 146.598 117.611C146.304 117.725 146.037 117.893 145.812 118.106L145.011 117.417ZM148.24 119.721C147.164 119.721 145.839 119.907 145.839 120.834C145.839 121.76 146.336 121.76 147.136 121.76C147.369 121.773 147.601 121.736 147.818 121.655C148.035 121.573 148.232 121.448 148.394 121.287C148.556 121.127 148.68 120.934 148.759 120.724C148.837 120.513 148.867 120.288 148.847 120.065V119.721H148.24Z" fill="#2B3E3C"/>
<path d="M152.821 113.26H151.662V122.501H152.821V113.26Z" fill="#2B3E3C"/>
<path d="M9.07875 136.431C9.12098 136.911 9.35927 137.356 9.74174 137.669C10.1243 137.981 10.6199 138.135 11.1208 138.099C11.4468 138.093 11.7667 138.013 12.0544 137.866C12.3422 137.718 12.5896 137.508 12.7765 137.251L13.6319 137.887C13.3054 138.282 12.8835 138.595 12.4026 138.798C11.9217 139.001 11.3965 139.088 10.8724 139.052C10.4551 139.068 10.0389 138.999 9.65099 138.851C9.26306 138.702 8.91202 138.477 8.62058 138.19C8.32921 137.903 8.10394 137.56 7.95941 137.184C7.81495 136.808 7.75438 136.407 7.78183 136.007C7.76943 135.599 7.84604 135.191 8.00682 134.813C8.16752 134.434 8.40883 134.092 8.71532 133.808C9.02175 133.524 9.38665 133.304 9.78656 133.162C10.1865 133.021 10.6127 132.962 11.038 132.988C11.4538 132.956 11.872 133.013 12.261 133.158C12.6501 133.303 12.9998 133.53 13.2841 133.823C13.5683 134.117 13.7795 134.468 13.9019 134.85C14.0243 135.233 14.0546 135.637 13.9906 136.034V136.431H9.07875ZM12.6937 135.53C12.709 135.314 12.6774 135.097 12.6007 134.893C12.524 134.69 12.404 134.504 12.2483 134.347C12.0926 134.189 11.9046 134.066 11.6963 133.983C11.4879 133.899 11.2637 133.858 11.038 133.862C10.5615 133.854 10.1002 134.023 9.75057 134.334C9.40094 134.645 9.18995 135.074 9.16152 135.53H12.6937Z" fill="#2B3E3C"/>
<path d="M20.0616 129.678H18.9302V138.92H20.0616V129.678Z" fill="#2B3E3C"/>
<path d="M24.8357 132.988C25.462 132.999 26.0711 133.187 26.5862 133.528C27.1013 133.871 27.4994 134.351 27.7303 134.91C27.9612 135.47 28.0146 136.081 27.8838 136.669C27.7529 137.257 27.4437 137.795 26.9949 138.214C26.5463 138.634 25.9783 138.916 25.3625 139.027C24.7466 139.137 24.1106 139.07 23.5345 138.834C22.9583 138.597 22.4679 138.203 22.1249 137.7C21.7819 137.197 21.6017 136.608 21.607 136.007C21.6069 135.604 21.6909 135.204 21.8542 134.833C22.0174 134.461 22.2566 134.125 22.5575 133.843C22.8585 133.562 23.2151 133.342 23.6064 133.195C23.9976 133.048 24.4156 132.978 24.8357 132.988ZM24.8357 138.046C25.3539 137.989 25.8323 137.751 26.1795 137.378C26.5268 137.004 26.7187 136.521 26.7187 136.02C26.7187 135.519 26.5268 135.036 26.1795 134.663C25.8323 134.289 25.3539 134.051 24.8357 133.995C24.3173 134.051 23.839 134.289 23.4918 134.663C23.1445 135.036 22.9526 135.519 22.9526 136.02C22.9526 136.521 23.1445 137.004 23.4918 137.378C23.839 137.751 24.3173 137.989 24.8357 138.046Z" fill="#2B3E3C"/>
<path d="M32.645 134.577C32.5068 134.393 32.3241 134.244 32.1126 134.143C31.9011 134.041 31.6672 133.99 31.4308 133.995C30.8789 133.995 30.4098 134.233 30.4098 134.656C30.4098 135.08 31.4584 135.451 31.9551 135.557C32.9485 135.796 33.7212 136.166 33.7212 137.252C33.7212 138.338 32.4518 139.052 31.2652 139.052C30.8213 139.09 30.3749 139.017 29.9689 138.841C29.5629 138.665 29.211 138.391 28.9473 138.046L29.8027 137.358C29.9831 137.564 30.2064 137.732 30.4582 137.85C30.7101 137.969 30.9849 138.036 31.2652 138.046C31.8447 138.046 32.4795 137.808 32.4795 137.305C32.4795 136.802 31.5412 136.51 31.0445 136.405C30.0511 136.193 29.1956 135.875 29.1956 134.763C29.1956 133.65 30.3546 132.988 31.486 132.988C31.8872 132.964 32.2882 133.038 32.6507 133.206C33.013 133.372 33.3247 133.626 33.5556 133.942L32.645 134.577Z" fill="#2B3E3C"/>
<path d="M38.9365 130.261H42.11C44.4003 130.261 44.8694 131.585 44.8694 132.67C44.8651 133.249 44.6367 133.805 44.2286 134.231C43.8207 134.657 43.2622 134.922 42.6618 134.975L45.2282 138.92H43.6829L41.5304 135.054H40.1508V138.867H38.9365V130.261ZM40.1508 134.074H41.7512C42.717 134.074 43.6829 133.862 43.6829 132.67C43.6829 131.479 42.717 131.293 41.7512 131.293H40.1508V134.074Z" fill="#2B3E3C"/>
<path d="M47.2979 136.431C47.3153 136.667 47.3813 136.898 47.4922 137.11C47.603 137.323 47.7565 137.511 47.9436 137.667C48.1309 137.822 48.3482 137.94 48.583 138.014C48.8179 138.088 49.0657 138.117 49.3123 138.099C49.6383 138.093 49.9583 138.013 50.246 137.866C50.5337 137.718 50.7811 137.508 50.968 137.251L51.851 137.887C51.523 138.28 51.1008 138.592 50.6203 138.795C50.1398 138.998 49.6154 139.086 49.0916 139.052C48.6719 139.072 48.2527 139.006 47.8615 138.859C47.4702 138.712 47.1157 138.488 46.8213 138.2C46.5268 137.912 46.2991 137.568 46.153 137.19C46.0068 136.813 45.9456 136.409 45.9733 136.007C45.9621 135.61 46.0348 135.214 46.1871 134.845C46.3395 134.476 46.5684 134.14 46.8598 133.858C47.1512 133.576 47.4993 133.353 47.8829 133.203C48.2665 133.054 48.6776 132.981 49.0916 132.988C49.5074 132.956 49.9256 133.013 50.3146 133.158C50.7036 133.303 51.0534 133.53 51.3376 133.823C51.6218 134.117 51.8331 134.468 51.9554 134.85C52.0778 135.233 52.1082 135.637 52.0442 136.034V136.431H47.2979ZM50.9128 135.53C50.9251 135.306 50.8876 135.081 50.8028 134.872C50.718 134.662 50.5878 134.473 50.4209 134.315C50.254 134.157 50.0541 134.036 49.8345 133.957C49.6148 133.879 49.3804 133.847 49.1467 133.862C48.6749 133.861 48.2207 134.034 47.8769 134.344C47.5332 134.654 47.326 135.079 47.2979 135.53H50.9128Z" fill="#2B3E3C"/>
<path d="M59.5497 138.867C59.5588 139.278 59.4779 139.687 59.3121 140.066C59.1463 140.446 58.8993 140.787 58.5872 141.069C58.2751 141.351 57.9048 141.567 57.5001 141.704C57.0955 141.839 56.6656 141.893 56.2383 141.859C55.6975 141.879 55.1581 141.796 54.6512 141.614C54.1443 141.432 53.6801 141.155 53.2857 140.8L54.0583 139.873C54.3207 140.175 54.6501 140.418 55.0224 140.583C55.3947 140.747 55.8007 140.831 56.2107 140.827C56.499 140.864 56.7922 140.837 57.0685 140.751C57.3449 140.664 57.5974 140.518 57.807 140.325C58.0165 140.131 58.1779 139.895 58.2789 139.634C58.38 139.372 58.4182 139.092 58.3907 138.814V137.966C58.1696 138.297 57.8623 138.566 57.4992 138.747C57.1361 138.929 56.73 139.015 56.3211 138.999C55.912 139.006 55.5057 138.934 55.1268 138.785C54.7481 138.637 54.4048 138.416 54.1181 138.136C53.8314 137.856 53.6072 137.523 53.4593 137.157C53.3115 136.791 53.243 136.399 53.2581 136.007C53.235 135.611 53.2977 135.216 53.4424 134.844C53.587 134.473 53.8104 134.136 54.0984 133.852C54.3863 133.567 54.7326 133.344 55.1152 133.196C55.4978 133.047 55.9085 132.976 56.3211 132.988C56.7272 132.976 57.1302 133.06 57.4954 133.23C57.8607 133.401 58.1774 133.654 58.4183 133.968V133.12H59.5773L59.5497 138.867ZM54.4171 136.007C54.4171 136.513 54.6264 136.998 54.999 137.355C55.3716 137.713 55.8769 137.914 56.4039 137.914C56.9308 137.914 57.4362 137.713 57.8088 137.355C58.1814 136.998 58.3907 136.513 58.3907 136.007C58.3907 135.501 58.1814 135.016 57.8088 134.659C57.4362 134.301 56.9308 134.1 56.4039 134.1C55.8769 134.1 55.3716 134.301 54.999 134.659C54.6264 135.016 54.4171 135.501 54.4171 136.007Z" fill="#2B3E3C"/>
<path d="M61.9231 130.234C62.0464 130.213 62.1731 130.217 62.2943 130.248C62.4154 130.279 62.5281 130.334 62.6243 130.411C62.7204 130.489 62.7979 130.585 62.851 130.694C62.904 130.803 62.9316 130.921 62.9316 131.041C62.9316 131.162 62.904 131.281 62.851 131.389C62.7979 131.499 62.7204 131.595 62.6243 131.672C62.5281 131.749 62.4154 131.805 62.2943 131.835C62.1731 131.866 62.0464 131.871 61.9231 131.849C61.726 131.815 61.5477 131.715 61.4194 131.568C61.291 131.42 61.2207 131.234 61.2207 131.041C61.2207 130.849 61.291 130.663 61.4194 130.516C61.5477 130.369 61.726 130.268 61.9231 130.234ZM61.3436 133.12H62.5026V138.92H61.3436V133.12Z" fill="#2B3E3C"/>
<path d="M67.5251 134.577C67.3739 134.387 67.177 134.234 66.9512 134.133C66.7254 134.031 66.4773 133.984 66.2281 133.994C65.6763 133.994 65.2072 134.232 65.2072 134.656C65.2072 135.08 66.2281 135.451 66.7525 135.557C67.7459 135.795 68.491 136.166 68.491 137.251C68.491 138.337 67.2492 139.052 66.0626 139.052C65.6184 139.092 65.171 139.02 64.7645 138.844C64.358 138.668 64.0065 138.392 63.7446 138.046L64.6 137.357C64.7804 137.564 65.0037 137.731 65.2556 137.85C65.5074 137.969 65.7823 138.035 66.0626 138.046C66.6421 138.046 67.2767 137.807 67.2767 137.304C67.2767 136.801 66.311 136.51 65.8142 136.404C64.8484 136.192 63.9929 135.874 63.9929 134.762C63.9929 133.65 65.152 132.988 66.2834 132.988C66.681 132.96 67.0794 133.033 67.438 133.201C67.7966 133.368 68.1028 133.624 68.3254 133.941L67.5251 134.577Z" fill="#2B3E3C"/>
<path d="M73.2093 134.074H71.5812V136.722C71.5812 137.384 71.5812 138.072 72.4369 138.072C72.7156 138.08 72.9922 138.016 73.2366 137.887V138.894C72.9159 139.029 72.5665 139.092 72.2156 139.079C70.4496 139.079 70.4223 138.046 70.4223 137.119V134.074H68.9873V133.12H70.3117V131.505H71.4706V133.12H73.0987L73.2093 134.074Z" fill="#2B3E3C"/>
<path d="M74.6724 133.12H75.8313V134.021C76.0028 133.708 76.2612 133.446 76.577 133.263C76.8935 133.081 77.2556 132.986 77.6246 132.988H78.1491V134.179H77.5973C76.4657 134.179 75.8586 134.762 75.8586 136.033V138.946H74.6997L74.6724 133.12Z" fill="#2B3E3C"/>
<path d="M82.095 132.988C82.7217 132.999 83.3309 133.187 83.8456 133.528C84.361 133.871 84.7587 134.351 84.9898 134.91C85.2209 135.47 85.2741 136.081 85.1431 136.669C85.0122 137.257 84.7034 137.795 84.2545 138.214C83.8057 138.634 83.2378 138.916 82.6222 139.027C82.006 139.137 81.3702 139.07 80.7939 138.834C80.2176 138.597 79.7274 138.203 79.3843 137.7C79.0412 137.197 78.8612 136.608 78.8668 136.007C78.8661 135.604 78.9502 135.204 79.1133 134.833C79.2772 134.461 79.516 134.125 79.8171 133.843C80.1182 133.562 80.4746 133.342 80.866 133.195C81.2568 133.048 81.6748 132.978 82.095 132.988ZM82.095 138.046C82.6131 137.989 83.0914 137.751 83.4387 137.378C83.7861 137.004 83.9779 136.521 83.9779 136.02C83.9779 135.519 83.7861 135.036 83.4387 134.663C83.0914 134.289 82.6131 134.051 82.095 133.995C81.5768 134.051 81.0985 134.289 80.7512 134.663C80.4039 135.036 80.212 135.519 80.212 136.02C80.212 136.521 80.4039 137.004 80.7512 137.378C81.0985 137.751 81.5768 137.989 82.095 138.046Z" fill="#2B3E3C"/>
<path d="M89.9319 134.577C89.789 134.397 89.6056 134.252 89.3948 134.151C89.1847 134.049 88.9529 133.996 88.7177 133.994C88.1659 133.994 87.6967 134.232 87.6967 134.656C87.6967 135.08 88.7177 135.451 89.2414 135.557C90.2351 135.795 90.9802 136.166 90.9802 137.251C90.9802 138.337 89.7386 139.052 88.5517 139.052C88.1077 139.092 87.6603 139.02 87.2541 138.844C86.8473 138.668 86.4958 138.392 86.2339 138.046L87.0896 137.357C87.2696 137.564 87.4929 137.731 87.745 137.85C87.9964 137.969 88.2716 138.035 88.5517 138.046C89.1315 138.046 89.7659 137.807 89.7659 137.304C89.7659 136.801 88.8276 136.51 88.3311 136.404C87.3375 136.192 86.4545 135.874 86.4545 134.762C86.4545 133.65 87.6414 132.988 88.773 132.988C89.1707 132.96 89.5685 133.033 89.927 133.201C90.2862 133.368 90.5922 133.624 90.8149 133.941L89.9319 134.577Z" fill="#2B3E3C"/>
<path d="M96.1958 130.261H99.342C101.66 130.261 102.24 131.585 102.24 132.67C102.24 133.756 101.688 135.054 99.342 135.054H97.41V138.867H96.1685L96.1958 130.261ZM97.438 134.074H99.0381C100.004 134.074 100.97 133.862 100.97 132.67C100.97 131.479 100.004 131.293 99.0381 131.293H97.438V134.074Z" fill="#2B3E3C"/>
<path d="M108.806 138.92H107.62V138.02C107.423 138.354 107.133 138.628 106.782 138.81C106.43 138.993 106.032 139.077 105.633 139.052C105.332 139.07 105.032 139.023 104.752 138.917C104.472 138.812 104.219 138.649 104.012 138.439C103.804 138.23 103.646 137.98 103.55 137.706C103.454 137.432 103.421 137.141 103.453 136.855V133.121H104.584V136.537C104.584 137.622 105.22 138.046 105.965 138.046C106.71 138.046 107.647 137.464 107.647 136.113V133.121H108.779L108.806 138.92ZM106.626 130.261H108.254L106.351 132.035H105.302L106.626 130.261Z" fill="#2B3E3C"/>
<path d="M110.545 129.757H111.677V134.048C111.922 133.731 112.243 133.477 112.613 133.306C112.983 133.136 113.391 133.054 113.801 133.068C114.588 133.138 115.32 133.488 115.852 134.049C116.384 134.61 116.679 135.341 116.679 136.1C116.679 136.859 116.384 137.589 115.852 138.15C115.32 138.711 114.588 139.061 113.801 139.132C113.391 139.141 112.985 139.057 112.616 138.887C112.247 138.717 111.925 138.465 111.677 138.152V138.999H110.545V129.757ZM115.678 136.086C115.656 135.71 115.52 135.347 115.286 135.043C115.052 134.74 114.73 134.508 114.361 134.378C113.992 134.248 113.59 134.224 113.207 134.31C112.824 134.396 112.475 134.589 112.205 134.863C111.934 135.137 111.753 135.481 111.684 135.853C111.614 136.225 111.66 136.608 111.815 136.955C111.971 137.302 112.228 137.598 112.557 137.806C112.885 138.014 113.27 138.125 113.663 138.125C113.94 138.134 114.215 138.086 114.471 137.985C114.727 137.884 114.957 137.733 115.148 137.54C115.338 137.348 115.484 137.118 115.575 136.867C115.667 136.618 115.702 136.351 115.678 136.086Z" fill="#2B3E3C"/>
<path d="M119.569 129.678H118.41V138.92H119.569V129.678Z" fill="#2B3E3C"/>
<path d="M122.024 130.234C122.147 130.213 122.274 130.217 122.395 130.248C122.516 130.279 122.629 130.334 122.726 130.411C122.822 130.489 122.899 130.585 122.952 130.694C123.005 130.803 123.033 130.921 123.033 131.041C123.033 131.162 123.005 131.281 122.952 131.389C122.899 131.499 122.822 131.595 122.726 131.672C122.629 131.749 122.516 131.805 122.395 131.835C122.274 131.866 122.147 131.871 122.024 131.849C121.827 131.815 121.649 131.715 121.521 131.568C121.392 131.42 121.322 131.234 121.322 131.041C121.322 130.849 121.392 130.663 121.521 130.516C121.649 130.369 121.827 130.268 122.024 130.234ZM121.417 133.12H122.549V138.92H121.417V133.12Z" fill="#2B3E3C"/>
<path d="M128.73 134.656C128.548 134.45 128.319 134.285 128.061 134.175C127.803 134.065 127.523 134.013 127.24 134.021C126.973 134.023 126.709 134.079 126.465 134.185C126.222 134.291 126.004 134.446 125.828 134.639C125.651 134.831 125.518 135.057 125.438 135.302C125.358 135.547 125.333 135.805 125.364 136.06C125.345 136.314 125.38 136.57 125.469 136.81C125.558 137.051 125.697 137.271 125.878 137.457C126.06 137.644 126.279 137.792 126.523 137.894C126.766 137.995 127.03 138.047 127.295 138.046C127.579 138.049 127.861 137.992 128.118 137.877C128.376 137.763 128.604 137.594 128.785 137.384L129.585 138.178C129.143 138.625 128.57 138.933 127.943 139.063C127.315 139.192 126.661 139.139 126.066 138.907C125.471 138.676 124.962 138.278 124.605 137.766C124.249 137.253 124.061 136.65 124.067 136.034C124.043 135.63 124.108 135.226 124.257 134.848C124.406 134.47 124.637 134.126 124.934 133.839C125.23 133.552 125.586 133.328 125.978 133.181C126.371 133.035 126.791 132.969 127.212 132.988C127.645 132.977 128.076 133.054 128.475 133.213C128.875 133.373 129.234 133.612 129.53 133.915L128.73 134.656Z" fill="#2B3E3C"/>
<path d="M133.477 132.988C134.104 132.993 134.716 133.177 135.235 133.516C135.754 133.855 136.156 134.334 136.391 134.893C136.626 135.451 136.684 136.063 136.555 136.653C136.428 137.243 136.121 137.784 135.673 138.205C135.225 138.628 134.657 138.913 134.041 139.025C133.424 139.138 132.787 139.072 132.209 138.837C131.631 138.602 131.139 138.207 130.795 137.703C130.451 137.2 130.27 136.61 130.275 136.007C130.275 135.606 130.358 135.209 130.52 134.84C130.681 134.47 130.918 134.134 131.216 133.854C131.514 133.572 131.867 133.351 132.255 133.203C132.643 133.054 133.058 132.981 133.477 132.988ZM133.477 138.046C133.902 138.072 134.325 137.976 134.692 137.769C135.059 137.561 135.352 137.253 135.535 136.884C135.717 136.514 135.78 136.1 135.714 135.697C135.648 135.293 135.458 134.917 135.166 134.619C134.876 134.32 134.497 134.112 134.082 134.022C133.667 133.932 133.233 133.965 132.836 134.114C132.44 134.263 132.1 134.524 131.86 134.862C131.619 135.199 131.491 135.598 131.489 136.007C131.466 136.269 131.5 136.533 131.59 136.781C131.68 137.031 131.823 137.258 132.011 137.45C132.198 137.643 132.425 137.795 132.678 137.898C132.93 138 133.202 138.051 133.477 138.046Z" fill="#2B3E3C"/>
<path d="M141.314 134.577C141.175 134.393 140.992 134.244 140.781 134.143C140.569 134.041 140.335 133.99 140.099 133.995C139.548 133.995 139.106 134.233 139.106 134.656C139.106 135.08 140.127 135.451 140.623 135.557C141.617 135.796 142.39 136.166 142.39 137.252C142.39 138.338 141.148 139.052 139.962 139.052C139.513 139.095 139.061 139.024 138.649 138.848C138.238 138.671 137.882 138.395 137.616 138.046L138.471 137.358C138.658 137.563 138.887 137.731 139.142 137.849C139.399 137.967 139.677 138.034 139.962 138.046C140.541 138.046 141.176 137.808 141.176 137.305C141.176 136.802 140.209 136.51 139.713 136.405C138.719 136.193 137.864 135.875 137.864 134.763C137.864 133.65 139.023 132.988 140.155 132.988C140.556 132.964 140.957 133.038 141.319 133.206C141.681 133.372 141.993 133.626 142.224 133.942L141.314 134.577Z" fill="#2B3E3C"/>
<path d="M184.637 48.99L177.269 50.8966L175.697 45.2296L183.065 43.323L184.637 48.99ZM181.05 36.0937L173.683 38.0003L172.082 32.3334L179.367 30.4267L181.05 36.0937ZM177.463 23.1974L170.067 25.104L168.495 19.437L175.863 17.5569L177.463 23.1974Z" fill="#E5432C"/>
<path d="M176.083 51.3734L169.46 55.0278L166.397 49.9434L173.02 46.289L176.083 51.3734ZM169.102 39.7217L162.506 43.3761L159.471 38.3182L166.066 34.6638L169.102 39.7217ZM162.148 28.1494L155.553 31.8303L152.489 26.7459L159.112 23.0916L162.148 28.1494ZM155.193 16.6831L148.599 20.3375L145.536 15.2531L152.158 11.5987L155.193 16.6831ZM148.267 5.05789L141.672 8.73874L138.609 3.65439L145.232 0L148.267 5.05789Z" fill="#E5432C"/>
<path d="M203.402 111.486L210.025 107.831L213.088 112.89L206.465 116.517L203.402 111.486ZM210.383 123.058L216.978 119.377L220.014 124.461L213.419 128.116L210.383 123.058ZM217.309 134.604L223.932 130.95L226.968 136.034L220.373 139.688L217.309 134.604ZM224.264 146.176L230.887 142.521L233.949 147.58L227.326 151.234L224.264 146.176Z" fill="#F6AA21"/>
<path d="M211.046 107.063L216.565 101.767L220.759 105.924L215.24 111.221L211.046 107.063ZM220.898 116.517L226.416 111.221L230.749 115.351L225.229 120.648L220.898 116.517ZM230.721 125.944L236.24 120.648L240.545 124.779L235.164 130.075L230.721 125.944Z" fill="#F6AA21"/>
<path d="M217.227 100.893L221.035 94.564L226.278 97.4769L222.47 103.833L217.227 100.893ZM229.286 107.593L233.121 101.238L238.392 104.177L234.556 110.506L229.286 107.593Z" fill="#E5432C"/>
<path d="M221.559 93.3988L223.518 86.3284L229.424 87.8644L227.437 94.9349L221.559 93.3988ZM234.998 96.8679L236.957 89.7974L242.863 91.3073L240.876 98.3778L234.998 96.8679ZM248.354 100.311L250.313 93.2403L256.218 94.7495L254.232 101.847L248.354 100.311ZM261.792 103.78L263.752 96.7094L269.658 98.2186L267.67 105.289L261.792 103.78Z" fill="#E5432C"/>
<path d="M223.712 77.7754H229.81V85.1105H223.712V77.7754ZM237.51 77.7754H243.608V85.1105H237.62L237.51 77.7754ZM251.307 77.7754H257.406V85.1105H251.528L251.307 77.7754ZM265.104 77.7754H271.534V85.1105H265.435L265.104 77.7754ZM278.902 77.7754H285V85.1105H278.902V77.7754Z" fill="#E5432C"/>
<path d="M223.518 76.5302L221.559 69.4604L227.437 67.9506L229.424 75.021L223.518 76.5302ZM236.957 73.088L234.998 66.0176L240.903 64.4817L242.835 71.4989L236.957 73.088Z" fill="#00ABA9"/>
<path d="M221.063 68.3213L217.255 61.9659L222.525 59.0266L226.278 65.382L221.063 68.3213ZM233.122 61.6482L229.314 55.2927L234.557 52.3533L238.364 58.7088L233.122 61.6482ZM245.153 54.9484L241.345 48.6195L246.644 45.68L250.451 52.0356L245.153 54.9484ZM257.212 48.2752L253.404 41.9463L258.674 39.0068L262.51 45.3623L257.212 48.2752Z" fill="#00ABA9"/>
<path d="M216.454 60.9066L210.935 55.6104L215.24 51.4794L220.76 56.6432L216.454 60.9066ZM226.278 51.5323L220.76 46.3685L225.091 42.211L230.473 47.5071L226.278 51.5323ZM236.102 42.1051L230.721 36.8088L235.026 32.6777L240.545 37.8415L236.102 42.1051Z" fill="#7FB847"/>
<path d="M210.025 55.0278L203.43 51.3734L206.465 46.289L213.087 49.9699L210.025 55.0278ZM217.006 43.482L210.383 39.7217L213.446 34.6638L220.042 38.3182L217.006 43.482ZM223.932 31.9097L217.337 28.2554L220.4 23.171L226.996 26.8254L223.932 31.9097ZM230.914 20.3375L224.291 16.6831L227.354 11.5987L233.949 15.2796L230.914 20.3375ZM237.868 8.79173L231.273 5.13734L234.308 0L240.903 3.70735L237.868 8.79173Z" fill="#7FB847"/>
<path d="M193.551 48.8313H185.934V42.979H193.551V48.8313ZM193.551 35.5908H185.934V29.6325H193.551V35.5908ZM193.551 22.3502H185.934V16.2595H193.551V22.3502ZM193.551 9.10966H185.934V2.91309H193.551V9.10966Z" fill="#F6AA21"/>
<path d="M202.215 50.8968L194.875 48.9902L196.448 43.3497L203.816 45.2299L202.215 50.8968ZM205.83 38.0005L198.462 36.0938L200.036 30.4534L207.404 32.3335L205.83 38.0005Z" fill="#F6AA21"/>
</svg>
